<?xml version="1.0" standalone="no"?>
<!DOCTYPE svg PUBLIC "-//W3C//DTD SVG 20010904//EN"
 "http://www.w3.org/TR/2001/REC-SVG-20010904/DTD/svg10.dtd">
<svg version="1.0" xmlns="http://www.w3.org/2000/svg"
 width="1865.000000pt" height="1920.000000pt" viewBox="0 0 1865.000000 1920.000000"
 preserveAspectRatio="xMidYMid meet">

<g transform="translate(0.000000,1920.000000) scale(0.100000,-0.100000)"
fill="#F1592A" stroke="none">
<path d="M9025 18283 c-439 -18 -1027 -94 -1458 -188 -1461 -319 -2773 -979
-3917 -1973 -181 -157 -648 -622 -805 -802 -1166 -1334 -1889 -2937 -2110
-4672 -168 -1327 -33 -2670 395 -3933 1044 -3074 3740 -5339 6940 -5829 476
-73 823 -99 1335 -100 406 0 581 8 935 45 2254 232 4334 1343 5801 3097 1121
1340 1816 2995 1988 4732 55 553 57 1142 5 1705 -155 1703 -826 3343 -1917
4688 -268 332 -716 797 -1019 1061 -1516 1319 -3339 2059 -5333 2166 -170 9
-658 11 -840 3z m-2470 -6924 c95 -27 134 -87 135 -210 0 -146 -67 -214 -210
-213 -90 0 -137 19 -174 67 -59 77 -56 233 6 303 48 55 153 78 243 53z m4942
-17 c58 -30 85 -78 91 -163 8 -112 -24 -185 -96 -223 -76 -39 -208 -27 -267
26 -85 74 -85 262 0 337 20 17 48 33 63 37 15 3 32 8 37 10 26 10 134 -5 172
-24z m2187 -561 c58 -14 61 -22 37 -85 -17 -47 -21 -79 -21 -181 l0 -125 26
-6 c15 -4 192 -5 395 -2 249 3 371 2 379 -6 15 -15 13 -233 -2 -243 -7 -4
-180 -6 -384 -4 -204 2 -380 0 -392 -3 -21 -7 -22 -12 -22 -181 0 -168 1 -175
21 -186 16 -8 149 -10 481 -8 543 5 491 19 486 -133 -2 -59 -8 -102 -15 -109
-9 -9 -45 -11 -125 -8 -62 2 -241 4 -397 4 -343 0 -335 3 -247 -104 172 -210
445 -430 731 -588 49 -27 71 -45 73 -61 4 -23 -114 -174 -144 -186 -20 -8 -70
17 -179 89 -190 124 -415 323 -576 511 -56 65 -85 91 -95 87 -14 -5 -15 -53
-13 -411 3 -387 2 -405 -16 -418 -22 -17 -206 -20 -235 -4 -17 9 -18 28 -13
407 5 362 5 399 -10 412 -15 12 -23 7 -69 -45 -90 -102 -310 -317 -392 -384
-97 -79 -320 -228 -352 -236 -41 -10 -67 5 -119 68 -62 76 -77 102 -69 122 3
8 41 33 84 55 208 109 424 275 623 481 135 139 164 182 136 202 -14 10 -659 3
-729 -8 -23 -3 -42 0 -55 10 -18 13 -20 26 -20 125 0 86 3 114 15 126 14 13
42 14 230 4 118 -6 327 -9 463 -7 207 2 249 5 257 18 5 8 10 88 10 176 0 131
-3 164 -15 174 -12 10 -100 12 -386 9 -441 -5 -402 -18 -397 138 2 56 7 105
11 110 5 4 177 6 383 4 294 -2 378 0 390 10 13 10 15 41 13 194 -1 100 1 187
5 194 9 13 182 15 240 2z m2630 0 c58 -14 62 -23 37 -80 -26 -61 -30 -181 -6
-201 11 -9 115 -11 435 -9 363 3 422 2 430 -11 5 -8 10 -61 10 -117 0 -135 3
-133 -180 -122 -74 4 -257 8 -407 8 -234 1 -274 -1 -287 -15 -14 -13 -16 -52
-16 -277 0 -148 4 -269 10 -277 8 -13 73 -15 482 -15 260 0 479 -4 486 -8 15
-10 17 -204 2 -227 -8 -12 -63 -14 -394 -11 -347 3 -387 1 -392 -13 -8 -21 8
-45 103 -146 155 -165 379 -339 586 -456 65 -37 122 -75 127 -84 8 -14 1 -29
-28 -69 -65 -85 -101 -121 -125 -121 -42 0 -255 142 -417 278 -97 82 -280 264
-362 361 -34 41 -49 53 -63 47 -17 -6 -18 -28 -13 -396 4 -268 2 -392 -5 -399
-14 -14 -226 -14 -247 -1 -12 8 -14 64 -11 398 3 345 1 390 -13 395 -11 4 -47
-29 -120 -111 -189 -210 -414 -399 -622 -521 -100 -59 -110 -57 -188 37 -36
42 -65 87 -66 99 0 18 17 31 88 67 201 104 422 268 596 442 120 120 150 159
142 180 -6 15 -43 16 -391 13 -306 -3 -387 -1 -397 9 -20 20 -18 216 2 237 14
13 40 14 220 5 274 -13 706 -13 731 0 18 10 19 24 19 285 0 273 0 274 -22 286
-17 9 -110 10 -368 6 -190 -4 -366 -10 -391 -13 -39 -5 -50 -3 -68 15 -18 18
-21 33 -21 114 0 63 4 99 14 112 12 17 36 18 432 19 l419 1 3 134 c1 79 7 140
14 148 12 15 170 18 232 4z m-13114 -321 c0 -66 2 -120 4 -120 3 0 77 27 165
60 271 100 477 140 608 120 91 -14 195 -65 265 -129 l57 -52 163 59 c226 83
297 101 462 122 264 33 484 -121 565 -396 46 -156 53 -242 58 -751 6 -563 0
-527 108 -582 76 -39 101 -74 75 -106 -11 -13 -46 -15 -274 -13 l-261 3 -6
585 c-7 629 -8 648 -63 793 -46 121 -121 207 -225 256 -50 23 -68 26 -161 26
-99 0 -113 -3 -239 -47 -73 -26 -135 -49 -136 -50 -2 -2 7 -35 21 -74 53 -157
57 -211 63 -766 7 -590 0 -550 98 -598 73 -36 95 -58 91 -94 l-3 -31 -357 -3
c-356 -2 -357 -2 -369 19 -19 36 3 66 78 102 112 53 107 36 111 467 4 398 -6
582 -38 705 -74 292 -272 424 -535 357 -44 -11 -134 -40 -200 -65 l-120 -45
-3 -658 c-3 -767 -11 -704 104 -763 75 -39 100 -75 74 -106 -11 -13 -55 -15
-369 -13 l-356 3 -3 31 c-4 36 17 57 91 94 99 49 92 -13 95 751 3 782 9 735
-94 783 -75 36 -94 53 -94 86 0 39 15 46 104 54 81 7 257 49 356 85 94 34 90
38 90 -99z m3460 -723 c0 -976 -10 -887 106 -946 75 -39 100 -75 74 -106 -11
-13 -55 -15 -369 -13 l-356 3 -3 31 c-4 36 17 57 91 94 99 49 92 -13 95 752 2
660 2 672 -18 713 -17 35 -32 48 -78 70 -73 35 -92 52 -92 85 0 39 15 46 104
54 81 7 257 49 356 85 30 11 63 20 73 20 16 1 17 -46 17 -842z m1140 723 c0
-66 3 -120 7 -120 4 0 111 39 238 87 261 99 311 107 425 76 62 -18 65 -19 63
-48 -19 -239 -35 -424 -39 -442 -4 -20 -11 -23 -54 -23 -41 0 -50 3 -50 18 0
38 -68 158 -112 199 -51 46 -97 63 -174 63 -140 0 -217 -69 -275 -245 -23 -69
-24 -76 -27 -600 -3 -620 -10 -576 104 -634 75 -39 100 -75 74 -106 -11 -13
-55 -15 -369 -13 l-356 3 -3 31 c-4 36 17 57 91 94 99 49 92 -11 95 738 2 361
0 671 -3 689 -8 45 -48 89 -103 113 -61 27 -82 47 -82 80 0 36 17 50 61 50 64
0 201 28 335 69 71 22 135 40 142 40 9 1 12 -29 12 -119z m3760 -729 l0 -848
23 -32 c13 -20 47 -45 87 -64 71 -35 96 -71 70 -102 -11 -13 -55 -15 -369 -13
l-356 3 -3 31 c-4 36 17 57 91 94 100 49 92 -16 92 765 0 783 9 713 -97 770
-75 41 -88 53 -88 85 0 39 14 46 104 54 81 7 257 49 356 85 30 11 63 20 73 20
16 1 17 -46 17 -848z m-1590 760 c47 -11 129 -35 184 -55 130 -47 145 -47 205
9 40 38 54 45 75 39 14 -3 30 -11 35 -18 7 -8 11 -284 13 -799 3 -773 3 -786
23 -814 12 -15 44 -39 72 -53 74 -37 95 -58 91 -94 l-3 -31 -270 0 -270 0 -5
76 -5 77 -270 -101 -270 -101 -130 -1 c-111 0 -140 4 -200 24 -204 68 -381
241 -469 456 -75 186 -87 536 -24 728 50 154 160 309 278 391 26 18 183 83
380 158 378 143 394 146 560 109z m6981 -312 c129 -62 144 -82 86 -116 -22
-14 -45 -43 -71 -94 -56 -108 -143 -252 -168 -279 -24 -26 -50 -24 -140 10
-53 20 -58 24 -58 52 0 16 15 57 34 91 19 34 64 129 101 212 36 82 72 153 78
157 23 15 54 8 138 -33z m-1300 -16 c42 -66 155 -299 168 -348 8 -30 8 -44 -3
-60 -18 -26 -145 -78 -182 -73 -24 3 -30 12 -60 93 -18 50 -61 145 -94 212
-35 70 -60 132 -58 145 2 17 18 29 68 50 36 15 80 28 98 28 28 0 37 -7 63 -47z"/>
<path d="M9570 10316 c-252 -90 -274 -99 -315 -142 -180 -186 -238 -582 -133
-903 39 -115 102 -215 190 -297 78 -73 161 -117 265 -140 117 -26 176 -17 374
57 l169 64 -2 599 -3 600 -50 39 c-98 75 -298 156 -385 157 -8 0 -58 -15 -110
-34z"/>
</g>
</svg>
