<?xml version="1.0" encoding="UTF-8"?>
<svg id="Capa_2" data-name="Capa 2" xmlns="http://www.w3.org/2000/svg" viewBox="0 0 42.38 54.21">
  <defs>
    <style>
      .cls-1 {
        fill: #d2373d;
      }

      .cls-2 {
        fill: #1e5788;
      }

      .cls-3 {
        fill: #185486;
      }

      .cls-4 {
        fill: #195485;
      }
    </style>
  </defs>
  <g id="Capa_1-2" data-name="Capa 1">
    <path class="cls-3" d="M41.69,27.41c-.64-.2-.19-1.58-1.44-1.25-.14,1.28-.05,2.69-1.28,3.59,1.01.52,1.19,1.34,1.17,2.43-.07,3.33.01,6.66,0,9.99-.01,6.31-2.9,8.4-8.42,9.02-3.35.37-6.77,1.06-10.03,1.04-5.23-.03-10.69.28-15.67-2.14-.85-.41-1.55-.93-1.92-1.85-2.35-5.72-2.07-11.74-1.73-17.68.12-2.1,1.38.32,2.13.03.62-.52,1.58-.97.13-1.7-1.37-.69-2.76-.8-4.22-.41-.7,5.57-.41,11.08.38,16.66.72,5.11,3.91,7.16,8.2,8.21,2.3.57,4.71.69,7.12.81,5.07.23,10.02-.85,15.03-1.04,7.26-.28,11.46-4.42,11.25-11.9-.13-4.62-.01-9.24-.68-13.82Z"/>
    <path class="cls-4" d="M32.58,31.07c-2.02-2.53-5.33-3.04-8.61-2.16-.81.22-1.8.45-2.06-.64-.19-.8-.55-1.79.43-2.5.57-.42,1.92-.31,1.43-1.55-.38-.98-1.42-.64-2.22-.67-1.02-.04-2.04-.04-3.05-.06-.22.17-.44.35-.66.52,0,.46.1.89.32,1.31,1.3,2.42,1.26,2.55-1.35,3.2-1.43.36-2.78.85-4,1.69-.95,1.19-2.52,1.31-3.7,2.16-2.02,1.46-3.48,3.16-3.55,5.8-.1,3.97,2.89,8.24,7.44,8.98,6.09,1,12.28.84,17.92-2.36,1.26-.72,3.01-1.13,3.4-2.67.99-3.89.74-7.94-1.75-11.06ZM14.83,33.56c-.52,1.25-.54,2.71-1.63,3.99-1.27-1.13-.85-2.74-1.61-3.91-.52-.8.34-.62.62-.71.86-.28,1.54-1.3,2.51-.88.53.23.34.97.12,1.51ZM26.93,32.1c-2.49.27-.94,3.1-2.69,4.11-.46-1.78-.9-3.47-1.35-5.23,1.77-.34,3.42-.25,5.08-.11-.35.41-.69.82-1.04,1.23Z"/>
    <g>
      <path class="cls-2" d="M39.56,2.2c-.27-1.09-.85-2.27-2.12-2.2-1.03.06-2.31.53-2.73,1.59-.92,2.29-2.7,4.04-3.59,6.4-1.25,3.31-3.88,4.51-7.36,3.71-1.86-.43-3.56-.41-5.43.01-4.42,1.01-5.68.23-8.15-3.75-1.07-1.72-1.07-3.96-2.8-5.31-1.13-.89-2.68-1.6-3.13.11-.63,2.37-1.89,4.52-2.08,7.06-.47,6.23-1.17,12.45-1.78,18.68,1.45.87,4-.01,4.29,2.7,2.55,1.62,4.96.42,7.39-.39,2.66-1.46,4.44-3.75,6.03-6.24.27-.28.56-.55.85-.81,4.86-2.56,6.19-2.29,9.53,1.95.34.43.63.94,1.07,1.26,2.82,2.03,5.65,4.09,9.47,3.15,1.56-.23,1.07-2.5,2.66-2.7.28-2.85.24-5.73.33-8.59.17-5.64-1.11-11.16-2.45-16.62ZM14.49,21.85c-.65,2.59-3.19,3.46-5.07,4.11-1.52.52-1.58-1.93-1.67-3.22.05-2.96,1.96-4.7,4.63-4.14,1.61.34,2.56,1.45,2.11,3.25ZM33.33,23.47c-1.88.36-2.51-1.34-2.57-2.84-.13-2.86,1.3-4.88,3.3-4.89,3.05-.01,1.89,2.84,2.84,4.13-.12,2.4-1.86,3.26-3.56,3.59Z"/>
      <path class="cls-2" d="M33.66,17.99c-.86.13-1.68.55-1.59,1.5.1,1.05.66,1.89,1.97,1.84,1.02-.03,1.49-.55,1.62-1.7-.51-.62-.58-1.87-1.99-1.64Z"/>
      <path class="cls-2" d="M11.14,20.21c-1.45.09-2.13,1-2.24,2.34-.12,1.36,1.17.82,1.77,1.2,1.52.1,1.81-1.08,2-2.12.19-1.05-.55-1.48-1.53-1.42Z"/>
    </g>
    <path class="cls-1" d="M27.84,30.86c2.52.13,3.3,1.96,3.97,3.97,1.85,5.56,1.28,6.9-4.12,9.08-4.62,1.86-9.38,2.56-14.27,1.27-3.97-1.05-8.41-6.55-3.8-10.52.7,1.72,1.07,3.49,1.89,5.11.43.85.92,1.01,1.7,1.03.84.02,1.46-.28,1.68-1.13.56-2.22,1.87-4.25,1.73-6.64-.08-1.35.5-2.05,1.84-2.25,1.27-.18,2.19.16,2.58,1.45.56,1.84,1.06,3.7,1.65,5.54.32.98.81,2.04,2.07,1.74.97-.23,2-.81,1.84-2.09-.22-1.8,1.93-3.5.2-5.33-.23-.89.53-.96,1.04-1.23Z"/>
  </g>
</svg>