<?xml version="1.0" encoding="UTF-8"?>
<svg id="Capa_2" data-name="Capa 2" xmlns="http://www.w3.org/2000/svg" viewBox="0 0 95.46 97.17">
  <defs>
    <style>
      .cls-1 {
        fill: #fff;
      }

      .cls-2 {
        fill: #135284;
      }

      .cls-3 {
        fill: #d1383b;
      }
    </style>
  </defs>
  <g id="Capa_1-2" data-name="Capa 1">
    <g>
      <g>
        <path class="cls-1" d="M44.97,85.16l-15.53,2.71-3.88,8.12s-8.71,1.06-9.18-2.71c-.47-3.77,4.82-3.29,4.82-3.29l1.77-20.71s-3.65,1.77-6-5.77c-2.35-7.53,1.29-13.53,1.53-14.36s-.12-1.65-.12-1.65c0,0-3.88-3.88,1.18-24.48l-.59-10.47s7.77,3.65,9.65,8c0,0,23.06-1.06,28.83,1.18,0,0,10.36-3.18,11.77-2.59,0,0-1.88,6.12-2.59,7.77-.71,1.65,1.65,19.53-.94,23.18-2.59,3.65-4.35,5.18-4.35,5.18l1.88,19.18s2.82,1.41,2.94,3.06c0,0,6.47-3.53,5.77,2.59-.71,6.12-3.29,12.59-4.71,12.36s-4.24-.71-4-4.47c0,0-10.83,10.36-18.24-2.82Z"/>
        <path class="cls-2" d="M22.95,97.17c-2.95,0-7.2-.56-7.6-3.76-.19-1.53.39-2.49.91-3.03,1.1-1.14,2.87-1.4,4-1.45l1.57-18.45c-.42-.02-.91-.11-1.43-.34-1.87-.81-3.35-2.94-4.41-6.33-2.15-6.89.46-12.61,1.32-14.49.1-.22.18-.38.21-.47.08-.29.02-.64-.04-.84-.84-1.13-3.51-6.46,1.05-25.09l-.58-10.32c-.02-.36.15-.71.46-.92.3-.2.69-.23,1.02-.08.32.15,7.42,3.53,9.84,7.88,3.86-.16,22.39-.79,28.23,1.15,4.04-1.23,10.65-3.07,12.14-2.45.49.21.75.75.59,1.26-.08.25-1.91,6.19-2.63,7.87-.14.51,0,3.36.12,5.87.4,8.12.58,15.03-1.17,17.5-1.94,2.73-3.44,4.31-4.12,4.98l1.78,18.13c.72.42,1.9,1.23,2.55,2.3,1.28-.51,3.4-1.08,4.87-.09,1.13.76,1.58,2.18,1.35,4.21-.64,5.51-2.77,11.53-4.57,12.88-.54.41-1.02.43-1.33.38-1.17-.19-3.94-.65-4.69-3.47-1.96,1.4-5.52,3.37-9.46,2.78-3.31-.49-6.15-2.67-8.45-6.48l-14.3,2.49-3.65,7.64c-.15.32-.46.54-.81.58-.31.04-1.38.15-2.73.15ZM25.55,95.98h0,0ZM20.67,91c-.83,0-2.28.14-2.93.82-.19.2-.44.55-.34,1.33.24,1.92,4.81,2.09,7.47,1.86l3.63-7.59c.15-.3.43-.52.76-.57l15.53-2.71c.44-.08.87.13,1.08.51,2.03,3.61,4.49,5.66,7.31,6.08,4.81.72,9.26-3.45,9.31-3.5.31-.29.77-.37,1.15-.19s.62.58.6,1c-.16,2.53,1.22,3.05,2.95,3.35.95-.77,3.05-5.82,3.7-11.42.08-.68.12-1.87-.44-2.25-.76-.52-2.72.11-3.8.69-.31.17-.68.17-.99,0-.31-.17-.51-.48-.54-.84-.05-.68-1.41-1.72-2.37-2.21-.32-.16-.53-.47-.57-.83l-1.88-19.18c-.03-.33.1-.66.35-.89.02-.01,1.72-1.52,4.19-4.99,1.48-2.09,1.05-10.92.79-16.2-.22-4.44-.27-6.06.05-6.79.48-1.12,1.55-4.46,2.14-6.34-2.01.3-6.35,1.43-10.06,2.56-.22.07-.46.06-.68-.02-5.5-2.13-28.18-1.12-28.41-1.11-.43.01-.83-.23-1-.62-1.21-2.8-5.28-5.38-7.56-6.65l.49,8.65c0,.1,0,.21-.03.31-4.74,19.3-1.45,23.49-1.42,23.53.09.09.14.17.19.29.05.12.49,1.2.16,2.34-.05.19-.15.4-.31.75-.86,1.88-3.14,6.87-1.22,13.01,1.07,3.42,2.33,4.62,3.2,5.02.78.36,1.36.12,1.38.11.33-.14.73-.1,1.03.11.29.21.47.56.44.92l-1.76,20.71c-.02.27-.15.53-.37.71-.21.18-.49.26-.76.24-.11,0-.26-.02-.44-.02Z"/>
      </g>
      <path class="cls-2" d="M19.79,34.18c-.1,0-.2-.02-.31-.05l-8.36-2.59c-.55-.17-.85-.75-.68-1.3.17-.55.75-.85,1.3-.68l8.36,2.59c.55.17.85.75.68,1.3-.14.44-.55.73-.99.73Z"/>
      <path class="cls-2" d="M19.79,38.89c-.06,0-.12,0-.17-.01l-8.36-1.41c-.56-.1-.95-.63-.85-1.2s.63-.94,1.2-.85l8.36,1.41c.56.1.95.63.85,1.2-.09.51-.52.86-1.02.86Z"/>
      <path class="cls-2" d="M11.43,44.42c-.45,0-.87-.3-1-.76-.16-.55.17-1.12.72-1.28l8.36-2.35c.55-.15,1.12.17,1.28.72.16.55-.17,1.12-.72,1.28l-8.36,2.35c-.09.03-.19.04-.28.04Z"/>
      <path class="cls-2" d="M72.51,43.24c-.06,0-.13,0-.19-.02l-9.41-1.77c-.56-.11-.93-.65-.83-1.21.11-.56.64-.94,1.21-.83l9.41,1.77c.56.11.93.65.83,1.21-.09.5-.53.85-1.02.85Z"/>
      <path class="cls-2" d="M71.97,37.48h-9.94c-.57,0-1.04-.46-1.04-1.04s.46-1.04,1.04-1.04h9.94c.57,0,1.04.46,1.04,1.04s-.46,1.04-1.04,1.04Z"/>
      <path class="cls-2" d="M63.09,32.89c-.51,0-.96-.38-1.03-.91-.07-.57.33-1.09.9-1.16l10.24-1.29c.57-.07,1.09.33,1.16.9s-.33,1.09-.9,1.16l-10.24,1.29s-.09,0-.13,0Z"/>
      <path class="cls-2" d="M33.79,26.77c-.57,0-1.04-.46-1.04-1.04v-5.35c0-.57.46-1.04,1.04-1.04s1.04.46,1.04,1.04v5.35c0,.57-.46,1.04-1.04,1.04Z"/>
      <path class="cls-2" d="M38.62,26.77c-.57,0-1.04-.46-1.04-1.04v-5.35c0-.57.46-1.04,1.04-1.04s1.04.46,1.04,1.04v5.35c0,.57-.46,1.04-1.04,1.04Z"/>
      <path class="cls-2" d="M43.69,26.77c-.57,0-1.04-.46-1.04-1.04v-4.47c0-.57.46-1.04,1.04-1.04s1.04.46,1.04,1.04v4.47c0,.57-.46,1.04-1.04,1.04Z"/>
      <path class="cls-2" d="M49.09,27.47c-.57,0-1.04-.46-1.04-1.04v-5.18c0-.57.46-1.04,1.04-1.04s1.04.46,1.04,1.04v5.18c0,.57-.46,1.04-1.04,1.04Z"/>
      <path class="cls-2" d="M61.1,90.63c-.27,0-.55-.11-.75-.32-.39-.42-.38-1.07.04-1.47l5.17-4.9c.41-.39,1.07-.38,1.47.04.39.42.38,1.07-.04,1.47l-5.17,4.9c-.2.19-.46.28-.71.28Z"/>
      <path class="cls-2" d="M54.4,72.5c-1.74,0-3.4-.67-4.63-1.9-2.73-2.73,1.69-8.96,2.61-10.18.34-.46.99-.55,1.45-.21.46.34.55.99.21,1.45-1.84,2.46-3.84,6.43-2.8,7.47.46.46,1.73,1.49,3.7,1.27,1.52-.17,3.84-1.17,6.22-4.97.3-.49.94-.63,1.43-.33.49.3.63.94.33,1.43-2.82,4.49-5.77,5.7-7.74,5.93-.26.03-.52.04-.77.04Z"/>
      <path class="cls-3" d="M35.55,80.44c-1.26,0-2.59-.12-3.99-.39-8.21-1.55-7.93-14.39-7.64-18.29.05-.69.1-1.09.1-1.09.05-.44.37-.79.8-.89.46-.1,11.55-2.51,26.65,2.66.52.18.81.74.66,1.27-.09.31-2.24,7.62-3.68,10.39-1.42,2.72-5.98,6.34-12.89,6.34ZM26,61.68c0,.07-.01.15-.02.24-.25,3.47-.57,14.87,5.96,16.1,8.33,1.57,13.47-2.6,14.66-4.87,1.06-2.02,2.61-6.96,3.24-9.05-11.91-3.86-21.23-2.83-23.84-2.42Z"/>
      <path class="cls-3" d="M42.39,65.88c-4.47,0-10.67-.62-17.78-3.06-.54-.19-.83-.78-.64-1.32.19-.54.77-.83,1.32-.64,13.59,4.66,23.91,2.36,24.01,2.34.56-.13,1.11.22,1.24.78.13.56-.22,1.12-.78,1.24-.22.05-2.94.66-7.37.66Z"/>
      <path class="cls-2" d="M36.73,45.74s-.05,0-.07,0c-.23-.02-.44-.16-.55-.37l-2.35-4.6c-.11-.21-.1-.47.03-.68.13-.21.35-.33.59-.33h6c.27,0,.51.15.62.39.12.24.08.52-.08.73l-3.65,4.6c-.13.17-.33.26-.54.26ZM35.51,41.13l1.35,2.64,2.09-2.64h-3.44Z"/>
      <circle class="cls-2" cx="26.43" cy="34.23" r="2.21"/>
      <circle class="cls-2" cx="51.52" cy="34.23" r="2.21"/>
      <path class="cls-2" d="M31.21,58.28c-.26,0-.56-.02-.88-.09-.24-.05-.44-.19-.55-.4-.27-.5.02-1.21.37-2.1.24-.6.51-1.29.51-1.71,0-.81-1.06-1.07-1.1-1.08-.28-.07-.45-.35-.38-.63s.34-.45.62-.38c.71.17,1.9.79,1.9,2.09,0,.62-.3,1.37-.59,2.1-.14.36-.35.86-.4,1.14.62.09,1.13-.03,1.14-.03.27-.07.56.1.63.38s-.1.56-.38.63c-.02,0-.38.09-.9.09Z"/>
      <path class="cls-2" d="M34.92,58.28c-.26,0-.56-.02-.88-.09-.24-.05-.44-.19-.55-.4-.27-.5.02-1.21.37-2.1.24-.6.51-1.29.51-1.71,0-.81-1.06-1.07-1.1-1.08-.28-.07-.45-.35-.38-.63s.34-.45.62-.38c.71.17,1.9.79,1.9,2.09,0,.62-.3,1.37-.59,2.1-.14.36-.35.86-.4,1.14.62.09,1.13-.03,1.14-.03.27-.07.56.1.63.38s-.1.56-.38.63c-.02,0-.38.09-.9.09Z"/>
      <path class="cls-2" d="M37.58,57.82s-.07,0-.11-.01c-.24-.05-.44-.19-.55-.4-.27-.5.02-1.21.37-2.1.24-.6.51-1.29.51-1.71,0-.8-1.06-1.07-1.1-1.08-.28-.07-.45-.35-.38-.63s.34-.45.62-.38c.71.17,1.9.79,1.9,2.09,0,.62-.3,1.37-.59,2.1-.15.37-.37.91-.4,1.17.18.11.27.33.23.54-.05.24-.27.41-.51.41Z"/>
      <path class="cls-3" d="M26.24,74.55s-.07,0-.11,0c-.28-.04-.51-.26-.57-.54l-1.28-6.04c-.05-.21.01-.43.16-.6.5-.57,2.24-2.42,3.59-2.35.44.02.81.23,1.07.6.91,1.29.81,2.54.37,3.42.7.56,1.61,1.51,1.19,2.46-.43,1-1.9.97-2.78.86l-1.04,1.85c-.12.22-.36.35-.6.35ZM25.72,68.03l.83,3.9.38-.68c.15-.26.44-.39.74-.34.65.13,1.44.14,1.71.02-.11-.26-.67-.8-1.21-1.15-.17-.11-.28-.29-.31-.48s.03-.4.16-.55c.43-.49.64-1.37-.05-2.35-.27-.08-1.31.62-2.26,1.62Z"/>
      <path class="cls-3" d="M37.93,73.55c-.89,0-1.71-.29-2.28-.82-.2.23-.46.45-.77.58-.39.17-1.01.28-1.8-.14-.68-.36-.86-.87-.9-1.24-.06-.65.33-1.32.77-1.87-.25-.08-.48-.2-.65-.38-.26-.27-.37-.64-.29-1.04.16-.87.59-2.39,1.75-2.78.63-.21,1.32-.05,2.04.5.87-.38,2.81-1.07,4-.27.47.32,1,.99.88,2.38-.05.55-.2,2.22-1.36,2.61-.03,0-.06.02-.09.03.27.59.41,1.21.21,1.68-.1.24-.36.64-1.03.72-.16.02-.33.03-.49.03ZM35.69,70.53s.08,0,.12.01c.35.06.6.39.56.74-.02.17.1.32.2.42.26.25.81.51,1.57.45-.08-.4-.56-1.24-1.11-1.94-.23-.29-.19-.71.1-.95.28-.24.7-.22.96.06.27.28.66.51.78.47,0,0,.31-.16.43-1.43.04-.4.02-.92-.27-1.11-.58-.39-2.14.1-3.01.55-.26.13-.57.09-.78-.1-.43-.4-.81-.58-1.02-.51-.31.1-.63.75-.81,1.58.22.06.68.08,1.06.03.31-.04.61.13.73.42.12.29.03.62-.21.81-.69.54-1.45,1.42-1.41,1.79,0,.05.1.11.16.15.37.19.55.11.61.09.36-.15.63-.75.7-1,.08-.3.36-.51.67-.51Z"/>
      <path class="cls-3" d="M44.21,73.48c-.49,0-1.01-.13-1.54-.38-.65-.31-.79-.8-.81-1.07-.05-.46.17-.91.46-1.29-.24-.12-.46-.28-.66-.47-.58-.56-.87-1.32-.82-2.16.03-.5.26-.9.66-1.12.72-.4,1.83-.08,2.59.23.29-.54.64-.88,1.07-1.03.8-.28,1.51.19,2.04.54.09.06.17.11.25.16.58.35.63.79.61,1.03-.01.16-.07.3-.14.43l.57.37c.2.13.32.35.32.58v3.05c0,.24-.12.46-.32.58-.2.13-.45.14-.67.04l-1.6-.76c-.23.54-.59.84-.89,1.01-.32.18-.7.27-1.1.27ZM43.25,71.84s.01,0,.02.01c.55.27,1.07.32,1.37.15.23-.13.38-.42.42-.86.02-.22.15-.42.35-.53.2-.11.43-.12.64-.02l1.36.65v-1.57l-1.06-.68c-.22-.14-.34-.39-.32-.65.02-.21.14-.4.31-.51-.25-.16-.6-.38-.75-.33-.02,0-.25.11-.51.87-.07.19-.21.35-.4.42-.19.08-.4.06-.58-.03-.71-.38-1.6-.65-1.89-.58-.03.57.2.9.4,1.09.32.31.74.42,1.01.4.31-.03.6.15.71.44.11.29.02.62-.23.8-.38.29-.76.72-.85.93Z"/>
      <path class="cls-2" d="M4.4,12.69s-.07,0-.11-.01c-.28-.06-.46-.33-.4-.61.66-3.11-.73-5.71-.74-5.73-.14-.25-.04-.57.21-.7.25-.14.57-.05.7.21.07.12,1.58,2.94.85,6.45-.05.24-.27.41-.51.41Z"/>
      <path class="cls-2" d="M.52,12.69c-.17,0-.33-.08-.43-.23-.16-.24-.09-.56.15-.72l6-3.97c.24-.16.56-.09.72.15.16.24.09.56-.15.72L.8,12.6c-.09.06-.19.09-.29.09Z"/>
      <path class="cls-2" d="M4.89,14.12c-.52,0-1.01-.11-1.46-.32-2.05-.98-2.44-3.83-2.45-3.95-.04-.28.16-.54.45-.58.28-.04.54.16.58.45,0,.02.33,2.41,1.87,3.15.95.45,2.23.2,3.78-.76.24-.15.56-.07.71.17s.07.56-.17.71c-1.22.75-2.33,1.13-3.31,1.13Z"/>
      <path class="cls-2" d="M12.52,11.54c-.28,0-.51-.22-.52-.51-.03-1.36-.34-1.5-.35-1.5-.2-.06-.84.41-1.29.97-.18.22-.5.26-.73.08-.22-.18-.26-.5-.09-.73.22-.28,1.38-1.66,2.43-1.31,1.01.34,1.04,1.94,1.05,2.46,0,.29-.22.52-.51.53h-.01Z"/>
      <path class="cls-2" d="M19.57,6.6c-3.55,0-5.98-3.97-6.08-4.14-.15-.25-.07-.56.18-.71.25-.15.56-.07.71.18.02.04,2.35,3.8,5.38,3.63.29,0,.53.2.54.49.01.29-.21.53-.49.54-.08,0-.16,0-.25,0Z"/>
      <path class="cls-2" d="M13.4,5.71c-.17,0-.34-.09-.44-.24-.15-.24-.08-.56.16-.71l5.74-3.62c.24-.15.56-.08.72.16.15.24.08.56-.16.71l-5.74,3.62c-.09.05-.18.08-.28.08Z"/>
      <path class="cls-2" d="M17.91,4.66c-.29,0-.52-.23-.52-.52V.52c0-.29.23-.52.52-.52s.52.23.52.52v3.62c0,.29-.23.52-.52.52Z"/>
      <path class="cls-2" d="M24.21,5.71s-.08,0-.11-.01c-.28-.06-.46-.34-.39-.62.08-.35.12-.81-.12-1.04-.37-.36-1.29-.22-1.58-.15-.28.07-.56-.1-.63-.37-.07-.28.1-.56.37-.63.17-.04,1.71-.41,2.56.41.47.45.61,1.13.41,2.02-.05.24-.27.41-.51.41Z"/>
      <path class="cls-2" d="M78.98,75.13c-.33,0-.66-.16-.86-.45-.32-.47-.2-1.12.27-1.44l10.33-7.05c.47-.32,1.12-.2,1.44.27.32.47.2,1.12-.27,1.44l-10.33,7.05c-.18.12-.38.18-.58.18Z"/>
      <path class="cls-2" d="M80.3,78.43c-.45,0-.87-.3-1-.76-.15-.55.17-1.12.72-1.28l11.83-3.29c.55-.15,1.12.17,1.28.72.15.55-.17,1.12-.72,1.28l-11.83,3.29c-.09.03-.19.04-.28.04Z"/>
      <path class="cls-2" d="M94.43,83.55s-.04,0-.06,0l-13.15-.79c-.57-.03-1.01-.53-.97-1.1.03-.57.52-1.01,1.1-.97l13.15.79c.57.03,1.01.53.97,1.1-.03.55-.49.97-1.03.97Z"/>
      <g>
        <path class="cls-1" d="M62.83,65.07s6.18-5.86,8.74-7.53,6-7.41,6.09-9.8,2.38-2.65,2.65-.79-.62,9.27-3.71,12.18c-3.09,2.91-8.33,5.35-9.59,6.82-1.26,1.47-3.32,5.89-3.32,5.89l-.86-6.77Z"/>
        <path class="cls-2" d="M63.69,72.87c-.05,0-.11,0-.16-.01-.46-.07-.81-.44-.87-.89l-.86-6.77c-.04-.33.08-.66.32-.88.26-.24,6.28-5.94,8.88-7.65,2.34-1.53,5.55-6.96,5.62-8.97.07-1.98,1.3-2.95,2.42-3.01,1.18-.06,2.11.8,2.3,2.1.3,2.1-.62,9.87-4.02,13.08-1.76,1.66-4.09,3.11-6.14,4.39-1.49.93-2.9,1.81-3.37,2.36-.96,1.12-2.61,4.46-3.16,5.65-.17.37-.54.6-.94.6ZM63.92,65.46l.36,2.86c.63-1.16,1.34-2.37,1.93-3.05.68-.79,2.08-1.66,3.85-2.77,1.97-1.23,4.21-2.62,5.82-4.13,2.68-2.52,3.65-9.45,3.39-11.28-.03-.23-.11-.32-.13-.33,0,0-.05,0-.12.06-.07.06-.31.3-.34.96-.11,2.85-3.78,8.81-6.56,10.63-2.09,1.37-6.83,5.77-8.21,7.06Z"/>
      </g>
      <path class="cls-2" d="M72.51,56.78l4.66,1.73s3.78-10.48,3.13-11.56-.41-3.54-7.8,9.83Z"/>
    </g>
  </g>
</svg>