<?xml version="1.0" encoding="UTF-8"?>
<svg id="Capa_2" data-name="Capa 2" xmlns="http://www.w3.org/2000/svg" viewBox="0 0 61.89 74.82">
  <defs>
    <style>
      .cls-1 {
        fill: #1a5687;
      }

      .cls-2 {
        fill: #fff;
      }

      .cls-3 {
        fill: #135284;
      }

      .cls-4 {
        fill: #215a89;
      }

      .cls-5 {
        fill: #2b5f8e;
      }

      .cls-6 {
        fill: #1e5989;
      }

      .cls-7 {
        fill: #185486;
      }

      .cls-8 {
        fill: #d1383b;
      }

      .cls-9 {
        fill: #225a8a;
      }
    </style>
  </defs>
  <g id="Capa_1-2" data-name="Capa 1">
    <path class="cls-7" d="M27.47,74.24c-6.35,1.75-12.45-.52-16.1-6.07-.55-.84-.95-1.2-1.91-.57-2.81,1.84-5.56,1.04-7.75-.9-1.85-1.64-1.83-4.24-1.6-6.61.21-2.07,1.28-3.58,3.34-4.34,1.06-.39,1.49-1.06,1.61-2.46.49-5.46,1.69-10.77,6.17-14.59,2.68-2.29,6.04-2.94,9.35-3.5,2.04-.35,4.14-.6,6.26-.17,3.96.82,6.55,3.28,7.89,6.92.79,2.15,2.12,2.72,4.18,2.96,3.56.42,6.47,4.33,6.28,7.95-.13,2.58-1.63,4.12-3.85,4.96-1.1.42-1.55.67-1.55,2.09,0,2.68-.99,5.19-2.6,7.42-2.21,3.05-6.21,5.94-9.71,6.9Z"/>
    <path class="cls-2" d="M1.97,63.48s-.14-.29-.19-.59c-.63-3.51.01-4.94,3.32-6.3,1.56-.64,1.91-1.52,1.65-3.01-.51-3.03.91-5.68,1.8-8.43.08-.23.23-.44.31-.68,1-2.99,1.6-3.4,4.04-.71,2.38,2.62,5.12,4.81,7.72,7.17,1.08.98,2.09.52,2.38-1.19.27-1.6.51-3.19.98-4.76.74-2.5,1.42-5.02,1.98-7.56.23-1.02.64-.92,1.41-.75,3.44.74,4.88,3.53,6.19,6.25.88,1.82,1.7,2.93,3.93,3.22,4.17.54,6.14,3.12,6.11,6.91-.02,2.09-1.34,3.28-2.92,3.61-1.76.37-2.36.67-2.38,2.7-.03,4-1.89,7.29-4.95,10.02-4.67,4.17-11.7,5.15-16.96,1.97-2-1.22-3.34-3.13-4.42-5.16-.63-1.19-1.09-1.3-2.11-.44-1.84,1.56-4.61,1.55-6.6.2-.79-.54-1.23-1.22-1.3-2.46Z"/>
    <path class="cls-2" d="M11.11,40.8c1.85-2.04,4.17-2.87,6.65-3.63,1.87-.58,3.72-.76,5.61-.95.87-.08,1.37-.04,1.04,1.15-1.07,3.88-2.53,7.67-2.8,11.8-4.42-1.68-6.34-6.31-10.5-8.38Z"/>
    <path class="cls-1" d="M22.14,63.03c.06.76.55,1.26,1.05,1.73.76.71,1.68,1.15,2.73.83,1.21-.38,1.46-1.48,1.47-2.55,0-.82-.05-1.71.98-1.6.78.08.73,1.07.72,1.72-.03,2.23-1.94,3.96-4.28,3.95-1.9,0-4.19-2.22-4.27-4.07-.02-.58.1-1.06.72-1.08.65-.02,1.07.34.89,1.07Z"/>
    <path class="cls-5" d="M18.81,56.93c.32.77-.15.98-.76,1.14-.77.21-1.46.01-1.68-.69-.26-.81.5-1.54,1.05-1.7.63-.18,1.12.6,1.39,1.24Z"/>
    <path class="cls-6" d="M27.19,54.49c.28.82.03,1.33-.75,1.62-.71.27-1.21-.19-1.28-.68-.12-.74.23-1.45,1.06-1.7.65-.19.88.24.98.75Z"/>
    <g>
      <path class="cls-3" d="M51.61,25.1c1.71,3.45,1.78,6.53.29,9.58-1.24,2.55-3.52,3.46-6.16,2.47-1.68-.63-2.81-1.04-4.44.87-2.41,2.83-5.58,5.12-9.66,5.37-5.34.33-9.51-2.45-11.15-7.5-.35-1.07-.84-2.16-.85-3.25-.02-1.93-1.18-2.26-2.67-2.57-3.13-.64-4.25-2.29-3.86-5.4.65-5.04,1.24-5.73,6.28-6.96.9-.22.62-.9.7-1.41.44-2.77.98-5.51,2.85-7.73,2.13-2.52,4.24-5.08,7.87-5.48.72-.08,1.01-.73,1.43-1.26,2.06-2.62,4.69-2.42,6.31.51.52.93,1.35,1.32,2.19,1.57,5.89,1.79,9.18,5.78,10.03,11.79.15,1.05.46,1.52,1.46,1.74,2.38.53,4.73,1.14,7.09,1.73,1.03.26,2.37,0,2.54,1.64.21,2.06-.76,4.07-2.39,4.64-2.51.88-5.04,1.2-7.86-.36Z"/>
      <path class="cls-2" d="M22.99,19.52c2.17-.07,4.08,2.07,6.46,1.72,4.45-.64,7.44,2.78,11.28,3.78,1.69.44,3.3.64,4.9.1,1.01-.34,1.42.04,1.92.78,1.45,2.15,1.32,4.43.53,6.7-.47,1.38-1.82,1.94-3.08,1.75-2.23-.33-3.48.86-4.81,2.3-3.11,3.35-6.74,5.7-11.58,4.85-2.35-.41-4.34-1.57-5.48-3.85-1.08-2.14-1.98-4.34-2.34-6.73-.2-1.3-.69-2.14-2.36-2.04-2.49.16-3.59-1.29-3.77-3.83-.32-4.58,2.77-6.72,8.32-5.55Z"/>
      <path class="cls-2" d="M53,24.28c-2.21-.33-4.06-1.06-5.57-2.65-.5-.52-1.41-.83-2.16-.89-4.25-.37-8.47-1.11-12.76-.87-2.45.14-4.74-.46-6.98-1.35-.37-.15-.73-.32-1.12-.41-2.94-.68-2.81-.66-2.34-3.64.7-4.43,3.74-7.01,7.06-9.41.45-.32,1.12-.48,1.68-.47,1.22.02,1.9-.54,2.53-1.56,1.31-2.12,2.94-2.06,3.94.17.53,1.17,1.24,1.58,2.46,1.92,6.32,1.72,9.91,6.61,9.42,13.24-.04.6-.25,1.31.38,1.64.66.35.91-.28,1.12-.78.25-.61.84-.52,1.2-.34,2.18,1.09,4.7.58,6.9,1.53.54.23,1.52-.08,1.36,1.01-.14.94.1,2.06-1.16,2.52-2,.73-4.02.81-5.95.34Z"/>
      <path class="cls-7" d="M30.79,35.44c-1.55-.26-3.44-2.6-3.29-4.03.04-.41.05-.84.56-.92.46-.07.73.15.84.63.09.38.24.77.44,1.11,1.21,2.08,2.12,2.1,3.34.03.35-.6.73-1.35,1.4-.98.75.42.47,1.3.13,1.98-.89,1.75-1.96,2.42-3.41,2.18Z"/>
      <path class="cls-9" d="M28,26.46c-.04.4-.22,1-.88.74-.55-.22-1.22-.67-1.11-1.44.11-.73.84-.84,1.38-.8.85.06.61.79.61,1.51Z"/>
      <path class="cls-4" d="M35.09,27.12c-.21.75-.61.87-1.13.7-.48-.15-.88-.45-.76-1,.14-.63.61-.82,1.23-.62.54.17.66.58.66.92Z"/>
      <path class="cls-8" d="M32.38,17.73c-2.21-.09-3.83-.91-4.83-2.82-.48-.92-.29-1.63.68-1.84,3.33-.74,6.41.34,9.44,1.55.57.23.82.85.47,1.34-.53.75-.72,2.02-1.91,1.97-1.32-.06-2.67.31-3.84-.19Z"/>
    </g>
  </g>
</svg>