<?xml version="1.0" encoding="UTF-8"?>
<svg id="Capa_2" data-name="Capa 2" xmlns="http://www.w3.org/2000/svg" viewBox="0 0 47.29 62.14">
  <defs>
    <style>
      .cls-1 {
        fill: #d13d40;
      }

      .cls-2 {
        fill: #4b59a1;
      }
    </style>
  </defs>
  <g id="Capa_1-2" data-name="Capa 1">
    <path class="cls-1" d="M24.96,41.09c.79-.08,1.6-.08,2.39-.25.22-1.3-.24-4.27,1.56-4.32,2.88-.08,2.21,1.82,2.05,3.85,1.96.38,5.57-1.54,6.5.82,1.11,2.82-1.7,1.4-2.38,1.85-.2.13-1.4,3.94-1.71,4.53,1.23.04,2.71-.79,3.91-.43.63.19,1.75,1.7,1.27,2.37-.28.38-5.7.8-6.68,1.01-.28.06-.79.08-.64.5,1,2.79,6.04,4.33,8.46,5.47.25.12.82.15.63.55-.41.88-2.31.03-2.94-.18-3.02-.98-5.08-2.53-7.5-4.5-.08-.02-.36.56-.36.6v6.48c0,1.35-2.88,1.15-2.88.48v-5.4l-4.46,5.97c-.76.61-2.43.11-2.51-.83-.05-.58,4.72-6.61,5.05-7.91.05-.39.04-.39-.34-.35-1.98.24-3.77,1.45-4.68-1.3.18-.78,4.64-.99,5.5-1.11-.09-.67-1.49-4.86-1.71-5.01-.51-.34-1.94.55-2.12-1.62-.11-1.4,1.66-1.17,2.87-1.29.24-.02.48.02.72,0ZM30,43.85v3.84c0,.3-.76,1.03.79.55.7-.21,1.82-3.95,2.09-4.87-.01-.19-2.75.06-2.88.48ZM27.12,43.73l-2.16.12c0,.31,1.38,3.74,1.62,4.13.16.25-.01.42.54.31v-4.56Z"/>
    <path class="cls-1" d="M14.64,40.85c.85-.07,1.75-.61,2.74.02.44.28,1.06,1.75.76,2.15-.24.33-5.52.47-6.38.83-.66.32-.63,2.7-.72,3.48.27.29,5.66-1.66,6.56-1.6,1.12.07,1.93,1.32,1.56,2.4-.3.87-1.99.56-2.69.67-.91.14-4.15.54-4.71.81-.68.33-.56,1.67-.38,2.3.13.46,2.06,1.63,2.61,1.94.61.34,6.4,2.51,5.44,3.56-3.14.5-5.8-2.2-8.4-3.6v4.44c0,.08-1.07.84-1.32.84-1.56,0-1.27-3.28-1.32-4.21-.01-.27.16-.66-.24-.59l-4.08,7.81c-.46.3-1.65-1.03-1.69-1.46-.12-1.13,4.72-8.4,5.28-10.07-1.79.06-4.92,1.96-6.39.52-.24-.24-.64-.86-.55-1.2.25-.94,6.17-1.3,7.09-2.06.68-.56.21-2.51.34-3.38-.23-.24-5.58,1.24-6.56,1.15-.78-.08-1.68-1.79-1.6-2.59,1.36.53,2.01-.2,3.07-.41.93-.18,2.82-.3,3.5-.54.33-.12,0-.69.27-.74l1.56.49v-3.48c0-.29.44-2.24.61-2.5.71-1.04,3.15.57,3.21.85.06.26-.4.76-.45,1.19-.12,1.07.16,2.16-.25,3.23.74.11,1.44-.16,2.16-.24.31-.03.64.02.96,0Z"/>
    <path class="cls-1" d="M30,6.29c.24-.14,3.43-.42,4.09-.59,1.9-.48,3.51-1.94,5.51-1.81.62.61-1.89,3.09-2.27,3.61-1.26,1.78-2.45,3.62-3.73,5.39.03.51,8.65,1.64,8.86,2.91.11.62-2.01,1.47-2.54,1.74-1.26.63-7.88,3.84-8.73,3.87-.04,0-.69-.21-.72-.24-.14-.15-1.29-3.15-1.38-3.54-.38-1.71-.97-9.23-.06-10.38.05-.06.5-.2.71-.37.23-.2.22-.57.25-.59Z"/>
    <path class="cls-2" d="M30,6.29s-.02.39-.25.59c-.21.17-.66.31-.71.37C26.3-.6,13.91-.66,9.02,4.87c-2.41,2.72-4.17,8.74-4.46,12.34-.27,3.34.56,5.18-1.69,8.15-.65.86-2.43,1.94-1.09,3.26.62.61,5.6,1.74,6.74,1.9,3.7.52,12.67.33,15.96-1.31,2.22-1.11,4.87-5.82,6-8.04.03.03.68.24.72.24-.63,2.08-2.22,4.42-3.61,6.11-.91,1.12-1.85,2.41-3.35,2.77.56,2.33.07,4.91.24,7.31.08,1.15.66,2.28.48,3.48-.24.02-.48-.02-.72,0-1.17-3.15-.35-6.62-.71-9.73-.16-1.43-.7-.54-1.39-.41-2.49.46-4.99.59-7.5.78.6,2.96.09,6.11,0,9.12-.32.02-.65-.03-.96,0l-.22-9.02c-2.55-.06-4.88-.26-7.37-.79-1.21-.26-5.2-1.14-5.56-2.36-.79-2.69,1.36-3.23,2.31-5.03,1.16-2.2.58-4.37.76-6.68.26-3.16,1.8-8.7,3.54-11.34,4.87-7.42,18.72-7.82,22.86.66Z"/>
    <path class="cls-1" d="M44.6,8.03c1.03,0,2.57.97,1.18,1.68-.79.41-4.18.81-4.48-.2-.32-1.07,2.58-1.48,3.3-1.48Z"/>
    <path class="cls-1" d="M45.6,3.41c.1.47-.1.64-.35.97-.34.45-3.16,2.4-3.59,2.38-.28,0-.57-.23-.87-.24-.44-.65,2.58-2.99,3.25-3.1.5-.08,1.04.01,1.55-.01Z"/>
    <path class="cls-1" d="M42.72,12.52c-1.05-1.57,4.56-1.4,4.57.12,0,1.3-4.43.08-4.57-.12Z"/>
    <path class="cls-2" d="M17.22,5.87c6.9-1.1,10.86,6.71,9.35,12.71-.66,2.61-4.88,8.26-7.74,8.36-.59.02-3.06-.43-3.72-.6-6.46-1.61-6.57-6.6-5.2-12.19.74-3.04,4.03-7.76,7.31-8.29ZM22.96,8.29c-1.53-1.32-4.21-2.05-6.16-1.4-5.09,1.68-8.78,12.1-5.48,16.28,1.8,2.28,7.18,3.73,9.56,1.97,5.27-3.89,7.58-12.09,2.07-16.84Z"/>
    <path class="cls-2" d="M16.98,8.74c2.26-.47,5.54,1.04,6.75,2.98,1.31,2.11,1.2,6.33-.07,8.49-.56.95-3.12,3.39-4.14,3.55-.21.03-2.45-.16-2.81-.22-1.89-.28-3.95-2.09-4.43-3.97-.43-1.69.34-5.9,1.05-7.53.48-1.1,2.5-3.07,3.65-3.3Z"/>
  </g>
</svg>