<?xml version="1.0" encoding="UTF-8"?>
<svg id="Capa_2" data-name="Capa 2" xmlns="http://www.w3.org/2000/svg" viewBox="0 0 47.3 62.09">
  <defs>
    <style>
      .cls-1 {
        fill: #4b59a1;
      }
    </style>
  </defs>
  <g id="Capa_1-2" data-name="Capa 1">
    <path class="cls-1" d="M13.68,31.8c-2.32.06-4.64-.19-6.92-.64-1.37-.27-6-1.22-6.28-2.6-.52-2.6,1.22-2.91,2.25-4.7,1.33-2.32.67-4.52.89-7.03.24-2.79,1.68-7.95,3.05-10.39,4.59-8.17,18.99-8.97,23.24-.06,1.31-.27,2.87-.33,4.13-.65,1.92-.48,3.57-1.85,5.55-1.77.04.34.02.63-.13.95-.57,1.25-3.09,3.95-4.05,5.31-.24.33-1.95,2.72-1.81,2.86,2.24.53,4.72.91,6.91,1.61,1.21.39,2.97.78,1.18,2.04-1.37.96-9.81,4.02-10.36,4.76-.41.55-.91,1.99-1.37,2.71-1.06,1.64-2.94,4.2-4.4,5.44-.29.25-1.01.46-1.04.51-.55.86.26,9.37.44,11,.45-.33,2.32-.15,2.4-.24.4-.41-.48-4.17,1.31-4.34,4.05-.39,1.81,3.39,2.28,3.86,1.93.19,6.41-1.72,6.72,1.34.23,2.28-1.86.85-2.61,1.33-.2.13-1.4,3.94-1.71,4.53,1.15-.15,3.05-.78,4.15-.48.31.08,1.46,1.79,1.1,2.37-.2.32-6.11.84-7.05,1s.16,1.29.48,1.68c1.94,2.38,4.91,2.98,7.52,4.24,1.35.65.74,1.16-.49.98-1.31-.19-4.25-1.54-5.44-2.25l-3.86-2.74c-.64.59.17,6.12-.42,7.38-.45.96-2.7.56-2.7.18v-5.4l-4.49,6.01c-.66.54-2.43-.11-2.49-.86-.07-.8,4.91-6.66,5.06-8.27-1.63,0-3.1,1.2-4.45-.23-2.1-2.21,3.63-2,4.93-2.17.18-.18-1.37-4.54-1.65-4.89-.33-.41-1.97.3-2.18-1.73-.16-1.53,1.77-1.23,2.88-1.3.15-.14-.66-3.34-.72-3.96-.15-1.82.29-4.33,0-5.99-.04-.24-.11-.51-.38-.58-.24-.06-4,.82-4.81.91-.68.07-3.05-.16-3.34.26l-.35,8.9c2.09-.18,3.65-.13,3.59,2.39-1.2.41-6.09.26-6.74,1.07-.2.24-.57,3.14-.45,3.26l6.38-1.67c1.25-.27,2.43,2.14,1.55,2.76-.78.55-6.09.58-7.41,1.11-1,2.3.34,2.97,2.04,3.99,1.36.81,4.23,1.7,5.17,2.44.37.29.71.95.66,1.44-1.22.15-2.24-.16-3.35-.6l-5.04-3v4.44c0,.19-.83.57-1.1.6-1.91.19-1.48-2.76-1.54-3.96-.01-.27.16-.66-.24-.59l-3.87,7.65c-.74.46-2.48-1.14-1.71-2.06l5.09-9.43c-.2-.19-4.36,1.37-5.39,1.2-.78-.13-2.29-1.81-.91-2.34,1.23-.47,5.89-.97,6.55-1.61.52-.51.1-2.46.23-3.25-.24-.24-5.48,1.17-6.59.96C.72,45.31-.01,43.91,0,43.08c1.45.37,2.43-.36,3.59-.61.75-.16,2.16-.18,2.73-.39.44-.17.52-.86.78-.92.28-.06.81.68,1.31.48.16-2.28-.62-8.18,3.2-5.48,1.17.83.26.88.17,1.77-.11,1.08.15,2.16-.25,3.23.3-.13,2.16-.13,2.16-.24v-9.12ZM16.99,1.15C8.4,1.98,5.2,9.55,4.56,17.28c-.2,2.42.39,5.1-1.1,7.3-.82,1.21-2.57,1.76-1.98,3.69.25.83,4.27,1.79,5.23,1.97,4.4.83,13.29.85,17.42-.84,1.76-.72,5.35-5.59,6.04-7.4s-.62-2.65-1.03-4.36c-.5-2.1-.71-5.17-.59-7.33.13-2.31,1.03-2.6-.38-4.9-2.36-3.85-7-4.68-11.19-4.27ZM30,43.92c-.3.92.22,3.33,0,4.44.33,0,.66.06.96-.12s1.96-4.3,1.92-4.8c-.47-.31-2.76.09-2.88.48ZM27.12,48.6c.03-1.16-.03-2.33,0-3.49,0-.38.26-1,.22-1.17-.15-.64-1.84-.31-2.37-.38-.2.19,1.55,4.66,2.16,5.04Z"/>
    <path class="cls-1" d="M43.87,8.1c.75-.07,1.3-.2,1.96.3,1.92,1.45-2.76,2.13-3.97,1.57-1.9-.87,1.05-1.78,2.01-1.87Z"/>
    <path class="cls-1" d="M44.1,3.29c.94-.25,1.9-.03,1.27,1.03-.12.2-2.66,2.04-2.9,2.14-.63.26-1.98.23-1.56-.59.15-.29,2.84-2.49,3.18-2.58Z"/>
    <path class="cls-1" d="M42.72,12.59c-.15-.21.09-.78.34-.98.72-.55,4.35-.2,4.24,1.1s-4.43.08-4.57-.12Z"/>
    <path class="cls-1" d="M11.6,24.75c-.4-.35-1.49-1.72-1.74-2.22-1.24-2.55-.3-8.05.89-10.57,2.06-4.39,5.6-7.5,10.6-5.47,4.74,1.92,6.47,7.66,5.17,12.36-.69,2.49-4.83,7.8-7.51,8.11-.6.07-4.06-.62-4.81-.84-.87-.25-1.92-.76-2.6-1.36ZM11.6,23.55c1.67,1.87,7.05,3.24,9.16,1.76,1.69-1.18,4.55-4.96,5.05-6.95,2.05-8.19-6.6-16.25-12.47-8.87-2.64,3.32-4.88,10.55-1.74,14.06Z"/>
    <path class="cls-1" d="M17.91,8.6c2.65-.11,6.12,2.38,6.54,5.09.51,3.26.29,5.96-2.27,8.25-.53.47-1.98,1.56-2.65,1.67-3.61.6-7.34-1.59-7.46-5.43-.04-1.43.86-5.68,1.63-6.88.69-1.09,2.89-2.66,4.2-2.71Z"/>
  </g>
</svg>