<?xml version="1.0" encoding="UTF-8"?>
<svg id="Capa_2" data-name="Capa 2" xmlns="http://www.w3.org/2000/svg" viewBox="0 0 47.35 62.16">
  <defs>
    <style>
      .cls-1 {
        fill: #d13d40;
      }
    </style>
  </defs>
  <g id="Capa_1-2" data-name="Capa 1">
    <path class="cls-1" d="M9.01,31.69c-1.47-.15-5.68-1.24-7.08-1.8-1.18-.47-1.46-.88-1.46-2.16,0-2.05.93-2.03,1.89-3.41,1.84-2.64,1.01-4.94,1.27-7.85.23-2.55,1.75-7.95,3.04-10.16C10.83-.73,22.94-2.4,28.34,3.97c.52.61,1.25,2.19,1.8,2.29s3.51-.41,4.21-.6c1.83-.49,3.37-1.93,5.27-1.81.06.49-.04.86-.27,1.29-.95,1.79-3.68,4.57-4.97,6.55-.16.25-.97,1.33-.76,1.52l8.24,1.96c.49.17.54.74.28,1.16-3.49,1.86-7.09,3.55-10.76,5.02-1.66,3.31-3.83,7.19-7.13,9.03.59,3.51-.12,7.14.73,10.66.45.03,2.17.04,2.36-.27.17-.28,0-2.78.39-3.57.43-.88,3.17-.61,3.45.41.13.47-.32,2.33-.45,2.95,1.98-.06,5.77-1.54,6.78.79,1.08,2.49-2.13,1.55-2.58,2.1-.52.62-1.08,3.2-1.56,4.08,1.27.13,2.63-.76,3.85-.37.65.21,1.81,1.65,1.33,2.31-.45.61-6.5.76-7.58,1.3.89,1.27,1.67,2.38,3.04,3.2l6.32,3.04c-.23.25-.39.55-.79.55-1.13.01-5.06-1.81-6.15-2.48-1.37-.84-2.4-2.16-3.86-2.74v6.12c0,.08-.32,1.48-.36,1.56-.43.9-2.52.46-2.52-.12v-5.4l-4.56,6.12c-.77.4-2.34-.08-2.42-.97-.06-.66,4.89-6.65,5.06-8.15-1.58-.11-3.08,1.21-4.42-.14-2.42-2.43,3.61-1.95,4.9-2.38.18-.18-1.45-4.35-1.7-4.66-.6-.73-1.81.06-2.12-1.72-.4-2.29,2.36-.5,2.63-1.9l-.72-10.2c-2.72,1.01-5.74,1.14-8.64,1.2.13,3.03.23,6.05,0,9.12,2.03-.63,3.73.04,3.36,2.4-.22.22-5.12.16-6.19.65-.81.37-.72,2.56-.77,3.42.37.38,5.78-1.77,7.03-1.39.89.27,1.69,2.21.65,2.71-.9.1-7.17.82-7.41,1.1-.16.19-.07,2.14.2,2.51s2.93,1.93,3.53,2.23c.89.46,4.66,1.47,4.41,2.78-.19.97-3.08-.26-3.59-.48-1.76-.75-3.22-1.97-4.81-2.99v4.44c0,.39-1.44,1.16-2.1.53-.94-.9-.63-2.82-.54-3.9.02-.26.14-.66-.24-.59-.63,1.14-3.43,7.4-4.08,7.82-.73.46-1.97-.91-1.5-2.24.7-1.99,2.94-5.2,4.02-7.26.31-.59.72-1.27.83-1.92-.23-.22-4.11,1.17-4.88,1.12s-2.06-1.15-1.82-1.94c.25-.83,6.15-1.23,7.08-2.05.69-.61.21-2.47.34-3.37-.22-.25-5.57,1.34-6.59,1.2-.88-.12-1.71-1.83-1.57-2.64,1.36.73,2.11-.2,3.07-.41.88-.2,2.86-.26,3.49-.54.36-.16-.22-1.08.94-.68.33.11.46.53.89.43v-3.72c0-.08.26-1.48.3-1.62.7-2.31,2.19-.25,3.54.06-.73,1.48-.32,2.98-.72,4.56.52-.06,1.76.2,2.05-.22.24-.34.22-7.43.12-8.31-.03-.24-.11-.83-.37-.83-1.36,0-3.02.13-4.32,0ZM1.76,28.75c.62.62,6.62,1.86,7.76,1.96,3.44.28,13.32.18,15.91-2.03,1-.85,5.06-6.55,5.04-7.66-.01-.52-1.08-2.33-1.3-3.23-.58-2.36-.68-5.38-.6-7.82.08-2.7,1.03-2.81-1.07-5.39C23.66-.15,14.69.08,10.17,3.7c-3.28,2.62-5.27,9.19-5.6,13.24-.21,2.58.3,4.53-.83,7.09-.67,1.5-3.68,3.03-1.98,4.72ZM32.89,43.45c-.62.1-2.45-.24-2.77.22s0,3.69-.34,4.57c.47,0,.92.12,1.32-.24.18-.16,1.98-4.4,1.8-4.56ZM27.13,43.69l-2.16.12,1.69,4.68c.25.1.48-.79.48-.84v-3.96Z"/>
    <path class="cls-1" d="M41.32,9.82c-.9-1.4,3.11-1.9,4.12-1.6.24.07.83.62.87.82.18,1.08-4.48,1.57-4.99.78Z"/>
    <path class="cls-1" d="M43.87,3.43c.47-.12,2.08-.23,1.63.66-.37.73-3.65,3.07-4.45,2.52-.92-.62,2.27-3.04,2.83-3.19Z"/>
    <path class="cls-1" d="M42.75,12.48c-1.13-1.76,6.39-.97,4.2.76-.41.33-3.97-.42-4.2-.76Z"/>
    <path class="cls-1" d="M17.47,5.84c6.77-.93,10.65,7.04,9.07,12.91-.72,2.66-5.06,8.3-7.97,8.34-.31,0-.57-.36-.93-.41-3.13-.47-5.58-.63-7.5-3.54-3.07-4.65,1.27-16.46,7.34-17.3ZM17.23,6.79c-4.97.86-8.47,10.84-6.78,15.06,1.26,3.15,7.61,5.32,10.21,3.49,1.59-1.12,4.62-5.01,5.11-6.89,1.42-5.45-2.2-12.76-8.54-11.66Z"/>
    <path class="cls-1" d="M17.23,8.71c2.27-.4,5.73,1.36,6.73,3.48s.87,6.18-.38,8.15c-.61.97-3.16,3.3-4.27,3.43-.44.05-2.74-.23-3.24-.34-1.12-.26-3.21-2.03-3.64-3.08-.76-1.84.12-6.69.98-8.5.55-1.16,2.56-2.92,3.82-3.14Z"/>
  </g>
</svg>