<?xml version="1.0" encoding="UTF-8"?>
<svg id="Capa_2" data-name="Capa 2" xmlns="http://www.w3.org/2000/svg" viewBox="0 0 98.58 72.59">
  <defs>
    <style>
      .cls-1 {
        fill: #1a5687;
      }

      .cls-2 {
        fill: #fde280;
      }

      .cls-3 {
        fill: #f6de7f;
      }

      .cls-4 {
        fill: #fbe080;
      }

      .cls-5 {
        fill: #fae081;
      }

      .cls-6 {
        fill: #d2d7d5;
      }

      .cls-7 {
        fill: #1d5788;
      }

      .cls-8 {
        fill: #215884;
      }

      .cls-9 {
        fill: #f9df80;
      }

      .cls-10 {
        fill: #cf383d;
      }

      .cls-11 {
        fill: #fbe180;
      }

      .cls-12 {
        fill: #f5dc80;
      }

      .cls-13 {
        fill: #1e5888;
      }

      .cls-14 {
        fill: #fce280;
      }

      .cls-15 {
        fill: #fae080;
      }

      .cls-16 {
        fill: #185486;
      }

      .cls-17 {
        fill: #195485;
      }

      .cls-18 {
        fill: #ffe280;
      }

      .cls-19 {
        fill: #f7de80;
      }
    </style>
  </defs>
  <g id="Capa_1-2" data-name="Capa 1">
    <path class="cls-18" d="M77.35,29.69c-3.03,2.9-6.66,2.05-9.69.71-7.54-3.32-14.76-2.96-22.02.52-.49.24-1.17.4-1.05,1.08.12.67.7.67,1.31.56.81-.15,1.62-.17,2.39-.6,5.82-3.25,11.68-2.47,17.48.02.79.34,1.85.26,2.5,1.27-5.74,1.7-11.58,1.44-17.38,1.5-3.23.03-6.42.82-9.66.38-.68-.09-1.61.33-1.7-.82-.07-.79.09-1.26.96-1.91,7.95-6.07,16.99-6.87,26.48-6.03,2.75.24,5.1,1.47,7.54,2.5.93.39,1.78.94,2.84.83h0Z"/>
    <path class="cls-2" d="M12.67,28c-.14-.39-.29-.78-.43-1.17.83.03,1.78.58,1.38-1.22-.95-4.25,1.98-8.51,6.49-9.87.93-.18,1.25.47,1.55,1.14.31,2.15-1.43,2.82-2.77,3.68-1.98,1.26-2.93,2.96-2.78,5.29.04.57-.38,1.48.59,1.54.71.04,1.07-.66,1.07-1.36.01-2.18,1.29-3.52,2.97-4.62.49-.33.95-1.19,1.46-.13.27.56,1.17,1.3.09,1.88-2.58,1.39-3.23,3.6-2.9,6.3.17,1.39-.61,1.77-1.61,1.1-1.61-1.07-3.68-1.15-5.12-2.53Z"/>
    <g>
      <path class="cls-16" d="M94.84,14.64c-1.52-1.41-3.46-1.66-5.15-2.53-2.04-1.04-4.23-.85-6.25-1.33-1.92-.45-2.14-3.82-4.2-5.15-2.57-1.66-5.94-1.98-7.84-4.83-.44-.66-1.66-.56-2.61-.62-2.49-.18-5.06.55-7.39.04-2.69-.59-4.44.05-5.95,2.06-.7.93-1.4,1.43-2.72,1.29-5.71-.58-11.3.86-16.96,1.2-8.43.49-16.29,3.11-23.89,6.74C4.54,15-.07,21.57,0,29.25c.09,9.09,3.55,16.85,10.36,22.93,2.43,2.17,4.14,5.28,7.69,6.11.98.23.53,1.13.62,1.82.7,5.61,3.11,8.83,8.94,10.33,5.96,1.54,11.91,2.43,18.19,2.04,4.02.3,8.15-.13,12.3-.48,4.14-.34,8.15-1.04,12.04-2.65,5.39-2.24,7.56-5.08,7.71-10.91.03-1.32.25-2.31,1.77-2.6,5.19-.97,8.52-4.77,11.5-8.5,5.38-6.74,7.33-14.82,7.48-23.37.07-3.68-.97-6.77-3.73-9.33ZM78.89,7.72c2.77,3.25,3.01,7.28.68,9.94-.84.96-1.53,2.04-2.29,3.07-.32.85-.92,1.25-1.83,1.14-2.23-.82-4.44-1.69-6.69-2.44-2.32-.77-4.74-.34-7.43-.28,2.74-4.51,5.36-8.83,9.5-11.93,2.78-2.08,6.12-1.8,8.07.49ZM56.37,4.57c.57-1.67,1.79-3.04,4.16-2.76,2.43.29,4.93.1,7.39.03,1.04-.03,1.96.27,2.92.57.84.26,1.17.92,1.28,1.6.11.68-.66.83-1.13.99-1.72.56-2.6,2.3-4.24,2.95-3.38,3.71-5.66,8.16-8.44,12.28-1.32.77-2.64,1.57-4.28,1.06-.62-5.77.48-11.33,2.32-16.72ZM52,5.26c1.23-.09,2.2-.14,1.62,1.77-1.28,4.19-2.27,8.43-1.42,12.91.21,1.08.03,2.78-2.04,2.34-1.58-3.49-2.03-7.32-3.34-10.89.1-4.58,1.15-5.83,5.18-6.13ZM41.23,17.83c.67,1.56.62,3.13.08,4.7-.38,1.64-1.47,2.24-3.09,2.56-4.8.93-8.88-.87-12.81-3.18-1.31-.77-2.2-2.23-1.85-3.74.39-1.7,1.34-3.28,3.25-3.83,5.46-1.57,10.28-.43,14.42,3.49ZM89.22,46.5c-2.94,3.54-6.21,6.75-10.98,7.73-1.89.39-2.81,1.45-2.58,3.47.12,1.1-.02,2.23.03,3.33.06,1.09-.3,2.07-1.08,2.71-4.43,3.59-9.32,5.95-15.22,6.04-5.07.07-10.14.78-15.2.77-6.34-.01-12.65-.63-18.65-2.98-3.16-1.24-5.09-4.31-4.5-6.86.8-3.47-1.52-3.34-3.03-4.52-7.74-6.07-14.39-12.81-15.33-23.41-.91-10.42,1.99-15.28,11.74-19.92,3.3-1.57,6.54-3.18,10.04-4.24.42.23.96.4.59,1.07-.33,1.64.09,2.09,1.65,1.15,2.71-1.63,5.57-2.83,8.85-2.49-.27.95-1.19,1.49-1.54,2.38-.27,1.04-1.03,1.16-1.94,1.1-2.81-.2-5.35.76-7.96,1.66-1.55.53-3.33.09-5,.53-5.54,1.49-8.98,7.83-6.86,12.79.23.36.9.56.43,1.17-1.49-.69-2.98-1.36-4.3-2.39-.55-.43-1.28-1.5-2.06-.51-.71.9.22,1.56.88,1.99,3.77,2.43,7.56,4.75,11.95,6.02,8.17,2.37,16.46,4.09,24.96,3.98,10.69-.14,21.52.42,31.68-4.03,3.26-1.43,6.45-3.04,9.72-4.44,1.26-.54,1.53-1.15.8-2.23-.02,0-.04,0-.05,0l.04-.03s.01.02.02.03c1.52.08,2.92-.4,4.13-1.24.79-.55,2.22-1.24.51-2.44-.35-.25-.4-.64-.23-.99,1.07-2.2,1.2-4.51.88-6.97,3.14,2.7,5.62,5.77,5.2,10.08-.76,7.81-2.36,15.41-7.56,21.67Z"/>
      <path class="cls-16" d="M66.55,7.71c-.32-.44-.44-.97-.55-1.61-.21.8.11,1.24.55,1.61Z"/>
    </g>
    <path class="cls-11" d="M56.73,23.49c7.57-4.81,14.12-2.57,20.35,2.77,1.09.93,3.11.45,4.02,2.15-1.1.87-2.39,1.14-3.74,1.28,0,0,0,0,0,0,.11-1.43-.75-2.14-1.9-2.69-5.61-2.67-11.4-3.82-17.56-2.35-.34.08-.73-.05-1.1-.08-.35-.34-.35-.7-.04-1.07Z"/>
    <path class="cls-15" d="M75.44,21.87c.61-.38,1.22-.76,1.83-1.14.18,1.2.48,2.22,1.72.69.57-.7.93-1.57,1.53-2.24,1.6-1.8,3.58-1.41,4.72.8,1.05,2.04,1.1,4.2,1.01,6.4,0,0,.04-.03.04-.03-3.9,1.45-6.62-.51-9.15-3.11-.5-.52-1.13-.92-1.7-1.37Z"/>
    <path class="cls-9" d="M50.6,25.14c-1.45,1.22-3.27,1.61-4.97,2.31-3.28,1.35-6.32,2.96-7.98,6.4-.72,1.48-2.16,1.29-2.83.07-1.22-2.2.93-3.97,1.28-6.01.19-1.11,1.49-1.18,2.6-.88.1.71-.39,1.13-.76,1.61-.45.58-1.72,1.05-.89,1.91.76.79,1.55-.17,2.05-.76,2.82-3.38,6.72-4.46,10.8-5.19.58-.25.75.01.69.55Z"/>
    <path class="cls-14" d="M87.87,22.44c-.35-1.1-.77-2.19-1.04-3.31-.31-1.29-.93-2.18-2.34-2.3-1.75-.14-1.56-1.4-1.58-2.62-.03-1.59,1.27-1.42,2.14-1.53,2.75-.37,4.53,1.6,4.58,4.73.02,1.23-.26,2.35-.66,3.47-.4.49-.42,1.25-1.09,1.56Z"/>
    <path class="cls-15" d="M28.36,27.45c1.84-.93,3.71-1.31,5.86-.23-1.93,1.14-1.15,3.04-1.32,4.63-.18,1.64-.19,2.81-2.35,1.82-.7-.33-1.64-.16-2.47-.21.5-1.85,2.32-3.58.28-5.51-.2-.11-.27-.22-.2-.33.06-.11.13-.17.2-.17Z"/>
    <path class="cls-4" d="M27.78,25.51c-2.92,1.07-4.05,2.74-2.87,5.58.18.43.24,1.02-.18,1.26-.47.26-1.01.1-1.51-.28-1.41-1.08-2.17-2.44-2.03-4.24.14-1.83,1.23-3.13,2.73-3.86,1.61-.78,2.45,1.17,3.88,1.54Z"/>
    <path class="cls-12" d="M45.51,10.42c-3.1.64-6.05-.02-7.98,2.48-.35.45-1.27,0-1.7-.46-.48-.5-.02-.97.29-1.45,1.22-1.88,2.83-2.72,5.11-2.27,1.32.26,2.66.38,4.29,1.69Z"/>
    <path class="cls-5" d="M44.07,17.93c-.41-1.74-1.9-2.39-3.24-3.16-.48-.28-1.19-.5-1.06-1.06.1-.41.75-.79,1.23-.99,2.57-1.09,3.48-.44,3.49,2.41,0,.74.06,1.48.09,2.21.27.57-.01.67-.51.6Z"/>
    <path class="cls-19" d="M45.24,20.12c2.3,3.12-.23,3.86-2.51,4.87-.11-1.93,1.98-2.93,1.87-4.75.16-.33.37-.37.64-.12Z"/>
    <path class="cls-18" d="M40.63,6.34c1.25-.21,2.51-.42,3.76-.64.95-.17,1.36.18,1.24,1.17-.12.97-.58,1.36-1.45.86-1.14-.66-2.44-.46-3.63-.79-.17-.16-.21-.3-.13-.42.07-.12.14-.17.21-.17Z"/>
    <path class="cls-18" d="M87.87,22.44c.02-.76.37-1.29,1.09-1.56.1.76.02,1.63,1.09,1.81-.44.43-.84,1.15-1.34,1.24-1.24.2-.63-.93-.84-1.48Z"/>
    <path class="cls-9" d="M56.73,23.49c.01.36.03.71.04,1.07-1.48.08-2.95.16-4.43.24-.14-.13-.2-.26-.16-.4.03-.15.07-.22.12-.22,1.48-.23,2.95-.46,4.43-.69Z"/>
    <path class="cls-3" d="M28.36,27.45c0,.17,0,.33,0,.5-.96.82-1.02,2.02-1.34,3.39-.76-1.91-1.06-3.39,1.33-3.89Z"/>
    <path class="cls-9" d="M52.3,24.19c.02.21.03.41.05.62-.5.55-1.12.42-1.74.33-.23-.18-.46-.37-.69-.55.69-.78,1.55-.52,2.39-.4Z"/>
    <path class="cls-6" d="M21.66,16.87c-.52-.38-1.04-.76-1.55-1.14.62-.83,1.29-.4,1.83.04.53.43-.15.73-.28,1.1Z"/>
    <path class="cls-9" d="M45.24,20.12c-.21.04-.43.08-.64.12-.18-.77-.36-1.54-.54-2.31.17-.2.34-.4.51-.6.96.75.24,1.91.67,2.79Z"/>
    <path class="cls-18" d="M40.63,6.34c-.03.2-.05.4-.08.6-.77-.07-1.54-.14-2.32-.21,0-.13,0-.26.01-.39h2.38Z"/>
    <path class="cls-16" d="M12.41,37.66c1.5-.07,2.28,1,3.04,2.06.38.52.71,1.07,1.02,1.63,2.78,5.07,2.84,5.15,7.54,1.78,2.28-1.64,4.2-1.58,6.14.35,1.11,1.11,2.33,2.16,3.23,3.42,1.06,1.49,1.66,1.97,2.94.1,2.1-3.05,5.67-3.24,8.38-.73.2.19.38.41.58.6,3.96,3.64,4.58,3.57,7.76-.89,1.44-2.02,4.37-2.41,6.6-.86.45.31.87.69,1.29,1.04q3.93,3.26,6.56-1.08c1.98-3.26,3.49-3.51,6.62-1.07,3.07,2.39,2.97,2.29,5.61-.74,1.63-1.86,2.83-4.71,6.32-3.65.66.2,1.73-.56,1.92.65.19,1.2-.99,1.86-1.75,1.59-3.39-1.19-4.13,1.88-5.4,3.49-2.18,2.79-4.04,3.39-6.83,1.24-.58-.45-1.03-1.08-1.62-1.51-1.15-.84-2.3-1.31-2.93.59-.06.17-.22.29-.33.45-3.68,5.66-3.75,5.67-9.15,1.7-2.89-2.13-3.81-2.05-6.1.48-4.38,4.85-4.46,4.88-9.49.23-1.47-1.36-2.8-2.61-5-1.56-.91.43-1.32,1.24-1.89,1.95-1.56,1.94-3.24,1.95-4.95.07-.31-.34-.67-.63-.99-.96q-4.35-4.46-9.41-.66c-1.89,1.42-4.38.41-6.03-2.5-.72-1.27-1.21-2.68-2.01-3.9-1.2-1.85-2.05-1.69-3.05.26-.28.55-.04,1.98-1.39,1.43-.98-.4-.77-1.24-.51-2.13.49-1.69,1.41-2.77,3.26-2.85Z"/>
    <path class="cls-1" d="M54.66,61.43c-2.01,0-3.4,0-4.79,0-.73,0-1.58.16-1.46-1.04.09-.89.76-.98,1.42-.91,5.09.51,10.08.15,14.99-1.37.74-.23,2.09-.51,2.37.71.29,1.27-1.15,1-1.76,1.22-3.68,1.3-7.51,1.71-10.78,1.39Z"/>
    <path class="cls-13" d="M39.41,62.51c-2.08-.19-4.66-.09-7.07-1.15-.69-.3-1.5-.63-1.22-1.55.37-1.22,1.15-.39,1.77-.2,2.48.77,5.02.93,7.6.91.92,0,2.28-.56,2.33,1.02.05,1.54-1.33.77-2.11.95-.26.06-.55,0-1.29,0Z"/>
    <path class="cls-7" d="M75.66,14.52c.33-1.11-.49-1.67-1.02-2.39-.37-.5-.71-1.2,0-1.69.78-.54,1.12.26,1.51.71,1.86,2.14,1.49,6.05-.73,7.97-.5.43-1.04.96-1.66.4-.57-.51.14-.95.33-1.39.53-1.21,1.93-2.04,1.59-3.61Z"/>
    <path class="cls-7" d="M66.8,7.91c-3.46-.04-.92-2.51-2.11-4.22,2.38,1.26,2.07,2.82,2.06,4.27,0,0,.05-.05.05-.05Z"/>
    <path class="cls-17" d="M31.2,15.78c2.84-.25,4.98.1,6.87,1.41,1.01.7,2.38,1.22,1.95,2.93-.41,1.64-1.7,2.74-3.1,2.68-1.99-.09-4.03.48-5.99-.21-.43-.15-.87-.32-1.22-.59-1.5-1.17-2.81-2.62-2.33-4.63.59-2.44,2.83-1.36,3.82-1.59Z"/>
    <path class="cls-8" d="M84.74,24.72c.22.42.15.78-.21.97-.47.24-.95.07-1.19-.36-.85-1.51-1.64-3.04-2.45-4.57-.19-.36-.18-.73.2-.95.55-.32,1.08-.21,1.45.3,1.04,1.4,1.92,2.89,2.2,4.62Z"/>
    <path class="cls-10" d="M32.23,17.43c1.47-.03,2.56-.04,3.57.53.92.52,2.53,1.11,1.99,2.07-.47.85-1.79,2.71-3.52.97-.42-.42-.84.08-1.25.1-1.87.1-3.45-.7-3.45-2.61,0-2.32,2.17-.2,2.65-1.07Z"/>
    <path class="cls-18" d="M76.74,29.87c-3.03,2.9-6.66,2.05-9.69.71-7.54-3.32-14.76-2.96-22.02.52-.49.24-1.17.4-1.05,1.08.12.67.7.67,1.31.56.81-.15,1.62-.17,2.39-.6,5.82-3.25,11.68-2.47,17.48.02.79.34,1.85.26,2.5,1.27-5.74,1.7-11.58,1.44-17.38,1.5-3.23.03-6.42.82-9.66.38-.68-.09-1.61.33-1.7-.82-.07-.79.09-1.26.96-1.91,7.95-6.07,16.99-6.87,26.48-6.03,2.75.24,5.1,1.47,7.54,2.5.93.39,1.78.94,2.84.83h0Z"/>
    <path class="cls-2" d="M12.73,27.62c-.14-.39-.29-.78-.43-1.17.83.03,1.78.58,1.38-1.22-.95-4.25,1.98-8.51,6.49-9.87.93-.18,1.25.47,1.55,1.14.31,2.15-1.43,2.82-2.77,3.68-1.98,1.26-2.93,2.96-2.78,5.29.04.57-.38,1.48.59,1.54.71.04,1.07-.66,1.07-1.36.01-2.18,1.29-3.52,2.97-4.62.49-.33.95-1.19,1.46-.13.27.56,1.17,1.3.09,1.88-2.58,1.39-3.23,3.6-2.9,6.3.17,1.39-.61,1.77-1.61,1.1-1.61-1.07-3.68-1.15-5.12-2.53Z"/>
  </g>
</svg>