<?xml version="1.0" encoding="UTF-8"?>
<svg id="Capa_2" data-name="Capa 2" xmlns="http://www.w3.org/2000/svg" viewBox="0 0 52.28 53.8">
  <defs>
    <style>
      .cls-1 {
        fill: #e7dbc7;
      }

      .cls-2 {
        fill: #8c8074;
      }

      .cls-3 {
        fill: #e4d4c1;
      }

      .cls-4 {
        fill: #cea77f;
      }

      .cls-5 {
        fill: #f5c38f;
      }

      .cls-6 {
        fill: #f3aabd;
      }

      .cls-7 {
        fill: #727d66;
      }

      .cls-8 {
        fill: #94a384;
      }

      .cls-9 {
        fill: #fbdebb;
      }

      .cls-10 {
        fill: #b4a593;
      }

      .cls-11 {
        fill: #e78d94;
      }

      .cls-12 {
        fill: #f9e0e5;
      }

      .cls-13 {
        fill: #dcbea1;
      }

      .cls-14 {
        fill: #fdf7f9;
      }

      .cls-15 {
        fill: #a6b697;
      }
    </style>
  </defs>
  <g id="Capa_1-2" data-name="Capa 1">
    <g>
      <path class="cls-6" d="M49.18,27.08c-.32,2.31-.92,4.75-2.14,6.76-.72,1.18-2,3.2-2.98,4.11-3.8,3.52-8.48,4.27-13.42,5.03-.19.03-.37.2-.61.21-.27.01-.76-.16-1.07-.16-.38,0-.91.12-1.3.12-2.93.05-6.64-.95-9.41-1.91-2.94-1.02-6.31-3.03-8.45-5.3-1.53-1.62-2.57-3.43-3.45-5.48-.4-.93-.39-1.99-.8-2.8.27.03.3.37.43.56.99,1.47,3.77,3.47,5.27,4.55,1.2.86,2.88,1.46,4.27,1.98,2.33.86,4.13,1.02,6.53,1.45.81.14,1.59.41,2.41.51s1.58.06,2.37.13c.38.03.83.18,1.19.18.83,0,2.16-.31,3.04-.42,2.07-.26,5.41-.48,7.27-1.3.73-.32,1.47-.63,2.2-.95,1.84-.81,3.1-1.64,4.63-2.93,1.07-.9,1.95-1.87,2.79-2.98.21-.28.52-.6.57-.95l.15.18.51-.6Z"/>
      <path class="cls-11" d="M5.55,27.67c-.15-.3-.48-.61-.58-.79-.25-.47-.34-1.08-.52-1.53s-.55-.9-.7-1.38c-.2-.64-.39-1.34-.57-1.99-.94-3.29-.62-6.16.92-9.2,2.75-5.41,7.41-8.22,12.85-10.55,1.41-.6,2.76-.73,4.15-1.21s2-.34,3.42-.45c.48-.03.95-.21,1.43-.24,1.55-.11,3.19.02,4.76-.12.29-.03.61-.14.9-.17.95-.09,1.77-.02,2.67,0,.48.01.65-.02,1.14.05,1.54.23,2.8.32,4.25.93,1.84.77,3.82,1.68,5.36,2.97.89.74,1.98,1.33,2.74,2.28.93,1.17,1.42,2.44,2.11,3.71.56,1.02,1.18,1.84,1.62,2.96.52,1.28.64,2.25.68,3.61,0,.18.12.4.12.6,0,.72-.55,2.91-.75,3.72-.23.94-.61,1.77-.89,2.68-.25.79-.26,1.34-.7,2.1-.36.61-.66.67-.76,1.41l-.51.6-.15-.18c-.05.35-.36.67-.57.95-.84,1.11-1.73,2.09-2.79,2.98-1.53,1.29-2.79,2.12-4.63,2.93-.73.32-1.47.63-2.2.95-1.86.82-5.2,1.04-7.27,1.3-.88.11-2.21.42-3.04.42-.36,0-.82-.15-1.19-.18-.79-.07-1.59-.03-2.37-.13s-1.6-.37-2.41-.51c-2.4-.43-4.2-.58-6.53-1.45-1.4-.52-3.07-1.11-4.27-1.98-1.5-1.08-4.28-3.08-5.27-4.55-.13-.19-.16-.52-.43-.56ZM47.18,8.24c-.4-.82-1.18-1.46-1.78-2.12-.32-.36-.58-.83-.95-1.13-.3-.24-.66-.36-.98-.57-.48-.32-.89-.75-1.38-1.06-1.35-.85-4.65-2.03-6.23-2.22-.56-.07-.56.22-.81.23-.45.01-1.12-.24-1.61-.25-2.81-.02-5.7-.04-8.51.18-1.5.12-3.01.68-4.52.84-.75.08-1.56.57-2.27.83-2.55.91-4.73,1.71-6.9,3.39-2.65,2.06-4.97,4.01-6.21,7.25-1.04,2.73-1.02,7.44.39,10.06,1.16,2.15,2.63,4.35,4.57,5.84,1.72,1.31,3.81,2.6,5.85,3.26.8.26,2.32.89,3.07.98.44.05.94.02,1.41.07,1.4.16,2.76.55,4.17.65,1.21.08,3.07.27,4.23.18.4-.03.8-.2,1.19-.24.86-.08,1.75.03,2.62-.06,2.96-.32,6.15-1.22,8.68-2.81.22-.14.42-.38.64-.49.19-.09.4-.1.58-.19.29-.14.46-.5.73-.7.68-.54,1.66-1.02,2.29-1.64.34-.33,1.39-1.79,1.65-2.22,1.31-2.24,2.76-5.81,2.96-8.41.04-.54-.07-.51-.22-.91s-.03-1.8-.09-2.36c-.26-2.43-1.6-4.33-2.59-6.37Z"/>
      <path class="cls-3" d="M9,39.88c.1.03.24.22.39.29.67.31,1.32.33,1.99.48.88.2,1.77.54,2.68.74,2.41.54,4.78,1.01,7.16,1.53.44.1,1.35.48,1.7.51.15.01.21-.09.33-.09.31,0,.98.29,1.32.34,1.62.2,3.41.22,5.06.3,4.85.22,9.42.26,14.26,1.01-.23.1-.29.07-.34.34l-.37,2.81c-1.68-.26-3.39-.45-5.08-.72-2.05-.33-4.13-.58-6.19-.89s-4.22-.49-6.36-.78c-1.43-.2-2.85-.49-4.29-.71-.42-.07-.9-.26-1.33-.28-.2,0-.43.07-.58.05-1.03-.17-2.16-.68-3.2-.91-.8-.18-1.62-.24-2.44-.33l.5.24c2.88.79,5.95,2.35,8.93,2.68,2.67.3,5.36.5,8.03.84,1.04.13,2.03.41,3.05.58,1.63.27,3.27.3,4.91.62.56.11,1.41.42,1.94.44.21.01.4-.07.64-.05.38.03.84.28,1.28.24-.14.23-.14.83-.21,1.13-.09.41-.51,1.61-.45,1.93.07.4.4.04.49-.22.17-.45.45-1.58.5-2.06.02-.17.05-.58.02-.73.36.08.72.17,1.07.24l-.23.33c-.02.83-.42,1.84-.48,2.62,0,.09.02.37.06.44-1.88-.36-3.64-1.22-5.52-1.59s-4-.46-5.98-.81c-1.53-.27-3.02-.68-4.55-.93-1.77-.28-3.51-.63-5.29-.78-.63-.21-1.46-.08-2.06-.26-.41-.12-.47-.58-.83-.72-.22-.09-.51-.06-.73-.1-.64-.14-1.47-.29-2.08-.48-.43-.13-.88-.46-1.28-.56-.29-.07-.75-.02-.98-.07-.02,0-.12-.17-.31-.24-.99-.39-2.3-.52-3.25-.89-.29-.11-.73-.46-1.09-.61-.33-.14-1.93-.58-2.04-.76-.15-.59.11-1.3.02-1.86-.03-.2-.48-.97-.64-1.08-.48-.33-1.92-.39-2.5-.33-.8-.44-1.8-.44-2.68-.62-.5-.1-1.26-.2-1.18-.88.02-.13.28-.79.35-.9.31-.48,1.01-.05,1.43.04.61.14,1.24.19,1.85.35.85.23,1.67.52,2.55.73.59.14,1.49.22,2.03.39Z"/>
      <path class="cls-10" d="M10.91,45.41c-.77.91-.94,2.19-1.72,3.07-.31.35-1.41,1.2-1.84,1.25-.12.02-.22-.05-.33-.03-.1.01-.17.11-.3.12-.14.01-.94-.15-1.1-.21-.31-.12-.67-.35-.86-.63-.35-.52-.62-1.8-.56-2.4,0-.11.04-.25.11-.33.18,1.21,2.27.28,2.69-.49.11-.19.29-.69-.09-.69-.2,0-.71.36-1.03.4-.17.02-.48.02-.64,0-.29-.04-.49-.28-.81-.11,0-.01-.18-.11-.12-.24.02-.01.05-.11.12-.15.45-.27.68-.19.66-.84-.03-.86-.55-1.69-1.49-1.64.08-.34.17-.82.33-1.13.1-.2.28-.27.33-.48.22,0,.35-.11.42-.12.58-.06,2.02,0,2.5.33.16.11.61.88.64,1.08.1.57-.17,1.27-.02,1.86.11.18,1.71.63,2.04.76.36.15.8.49,1.09.61ZM6.18,41.51c-1.6-.01-1.12,2.39.05,2.41,1.27.02,1.26-2.4-.05-2.41Z"/>
      <path class="cls-3" d="M45.19,49.58c.85.12,1.72.14,2.58.24.62.07,1.1.64,1.02,1.27-.02.16-.17.71-.21.95-.39,1.84-1.3,2.02-2.97,1.49-.39-.12-.61-.28-.9-.44.07-.12.18-.19.23-.34.13-.47.43-2.42.37-2.84-.02-.12-.11-.21-.12-.33Z"/>
      <path class="cls-3" d="M45.25,48.45c.07-.06.15-.11.19-.19.17-.33.42-2.06.39-2.44-.01-.19-.14-.41-.23-.58.67.09,1.45.12,2.16.26.4.07.73.11.89.54s.16,1.95,0,2.35c-.02.05-.55.65-.59.66l-2.82-.59Z"/>
      <path class="cls-3" d="M4.24,40.89c-.05.21-.23.28-.33.48-.15.31-.25.79-.33,1.13l-.54.6c-.57-.03-1.12-.14-1.67-.27-.22-.05-1.17-.28-1.28-.39-.3-.3.13-.71.19-.94.04-.15,0-.3.03-.45.14-.55.14-1.02.84-.93.85.1,2.23.77,3.07.77Z"/>
      <path class="cls-4" d="M4.3,45.12c-.22.12-.92.46-1.16.54-.44.14-.68.23-.92-.22s.36-1.24.58-1.67c.1-.19.16-.53.25-.68l.54-.6c.95-.05,1.46.77,1.49,1.64.03.65-.2.57-.66.84-.07.04-.1.14-.12.15Z"/>
      <path class="cls-13" d="M45.19,49.58c.01.12.1.21.12.33.06.42-.24,2.37-.37,2.84-.04.15-.15.22-.23.34-.09-.05-.79.08-.95-.24-.03-.06-.06-.35-.06-.44.06-.79.45-1.79.48-2.62l.23-.33c.25.05.52.08.77.12Z"/>
      <path class="cls-2" d="M4.3,46.25c-.04-.29.16-.75.12-.89.32-.17.52.07.81.11.17.02.47.02.64,0,.32-.04.83-.4,1.03-.4.38,0,.2.49.09.69-.42.78-2.51,1.7-2.69.49Z"/>
      <path class="cls-13" d="M45.61,45.24c.08.17.21.39.23.58.03.38-.23,2.1-.39,2.44-.04.09-.12.13-.19.19-.16-.11-.37-.03-.54-.06.03-.15-.14-.13-.19-.25-.1-.22.09-.76.13-1.04.08-.64.05-1.35.31-1.93.21.03.43.03.65.06Z"/>
      <path class="cls-3" d="M44.95,45.18c-.26.58-.23,1.29-.31,1.93-.03.28-.23.82-.13,1.04.06.12.22.1.19.25-.4-.07-.83-.18-1.19-.24.35-.99.38-2.06.54-3.1.28.04.62.09.89.12Z"/>
      <path class="cls-10" d="M9,39.88c.47-.89,1.63-1.13,2.1-.1.1.23.23.62.29.88-.67-.15-1.32-.17-1.99-.48-.16-.07-.3-.26-.39-.29Z"/>
      <path class="cls-13" d="M43.35,49.23c.03.15,0,.56-.02.73-.05.47-.34,1.61-.5,2.06-.09.26-.42.62-.49.22-.06-.32.36-1.52.45-1.93.07-.3.07-.9.21-1.13.1-.17.32-.12.36.06Z"/>
      <path class="cls-13" d="M44.06,45.06c-.15,1.03-.18,2.11-.54,3.1-.11-.02-.25.02-.36,0l.37-2.81c.05-.28.11-.24.34-.34.09.01.15.06.18.06Z"/>
      <path class="cls-14" d="M47.18,8.24c.99,2.04,2.33,3.94,2.59,6.37.06.56-.07,1.94.09,2.36s.26.37.22.91c-.2,2.59-1.66,6.16-2.96,8.41-.25.44-1.31,1.89-1.65,2.22-.63.62-1.61,1.1-2.29,1.64-.26.21-.44.56-.73.7-.19.09-.4.1-.58.19-.22.11-.42.35-.64.49-2.53,1.59-5.72,2.49-8.68,2.81-.87.09-1.75-.02-2.62.06-.4.04-.79.2-1.19.24-1.16.1-3.02-.09-4.23-.18-1.41-.1-2.77-.49-4.17-.65-.47-.05-.97-.02-1.41-.07-.76-.09-2.27-.72-3.07-.98-2.04-.66-4.14-1.94-5.85-3.26-1.95-1.49-3.42-3.7-4.57-5.84-1.41-2.61-1.43-7.33-.39-10.06,1.23-3.24,3.56-5.19,6.21-7.25,2.18-1.69,4.35-2.48,6.9-3.39.71-.25,1.52-.75,2.27-.83,1.51-.16,3.02-.72,4.52-.84,2.81-.23,5.7-.2,8.51-.18.49,0,1.16.26,1.61.25.25,0,.26-.29.81-.23,1.58.19,4.88,1.37,6.23,2.22.49.31.9.75,1.38,1.06.32.21.68.33.98.57.37.31.63.78.95,1.13.6.66,1.39,1.3,1.78,2.12ZM23.17,12.25c-.24-.04-.46.04-.68.06-.36.03-.21-.08-.62.12-.02,0-.04,0-.06,0-.12-.6.01-1.08-.24-1.67-.09-.2-.17-.46-.44-.41-.09.02-.13.1-.16.11-.28.11-.31.09-.54.3,0,0-.08-.01-.1.01-.14.17-.06.77-.08,1.03s-.14.5-.18.69c-.24.02-.51-.02-.74,0-.37.04-1.73.73-2.07.96-.13.09-.25.22-.34.35-.23-.17-1.22-.27-1.52-.24-1,.11-2.61,1.6-2.65,2.62-.37.19-.77.57-1.07.86-1.14,1.12-1.99,2.23-2.73,3.64-.06.11-.17.18-.22.31-.19.44,0,.63.03,1.01.12,1.45-.57,1.8.24,3.33-.36-.03-.56-.52-.72-.79-.2-.34-.41-.73-.58-1.09-.08-.17-.37-1.03-.42-1.07-.14-.09-.31-.02-.29.17s.36.99.46,1.22c2.01,4.61,7.17,7.25,11.83,8.41.47.12,1.09.3,1.56.35.31.03.72-.07.92-.03.17.03.51.31.74.39.54.2.68.07,1.17.07,4.33-.04,8.3.22,12.55-.97,2.19-.61,4.32-1.9,6.17-3.17,3.49-2.39,5.11-6.27,5.73-10.35.03-.21.25-.66.15-.81-.05-.08-.41-.19-.44-.02-.11,1.18-.27,2.34-.64,3.47-.45,1.39-1.23,3.18-2.05,4.35.02-.49.26-.94.34-1.41.07-.39.04-.8.08-1.17.14-1.09.57-1.45.12-2.64-.15-.41-1.15-1.99-1.47-2.22-.24-.17-.36.02-.33-.39.04-.43.27.2.42.29.24.15.82.29.92-.08s-.88-1.11-1.28-.92c-.21.1-.07.37-.39.21-.58-.28-.56-1.12-1.16-1.64-.41-.36-2.67-1.68-3.17-1.83-.64-.19-1.23-.1-1.77-.22-.08-.02-.37-.23-.52-.28-.96-.36-2.21-.34-3.23-.43.04-.33.13-.7-.03-1.01-.04-.07-.12-.09-.14-.12-.08-.1,0-.16-.24-.27-.98-.46-.65.36-.6.98-.13.09,0,.36-.12.45-.1.07-.4,0-.54.03-.06-.47-.23-1.54-.57-1.84-.84-.72-2.47.02-2.7,1.06-.21-.06-.5-.04-.71-.12.04-.19.18-.37.03-.54-.05-.06-.14-.05-.15-.06-.2-.19-.1-.21-.42-.3-.64-.18-.7.38-.91.85-.04.09,0,.19-.16.16,0-.18.01-.27-.05-.46-.09-.3-.64-.81-.66-1.01-.02-.22.43-.59.34-.97-.02-.1-.24-.27-.34-.29-.34-.05-1.3,1.07-1.53,1.37-.31.39-.84,1.16-1.05,1.6ZM19.1,11.02c-.41-.41-1.9.06-1.56.82.32.7,2.22-.15,1.56-.82ZM46.09,13.08c.16.09.44-.21.42-.33,0-.06-.06-.11-.14-.02-.14.16-.31.12-.28.35ZM43.45,14.64c-.49.17.45,1.07.64,1.19.25.14.66-.2.63-.5-.06-.56-.79-.84-1.27-.68ZM6.59,21.3c-.26.06.05.93.41.83.1-.03.09-.09.07-.18-.02-.1-.38-.67-.48-.65Z"/>
      <path class="cls-13" d="M6.18,41.51c1.31,0,1.32,2.42.05,2.41-1.17-.01-1.65-2.42-.05-2.41ZM5.95,41.85c-.52.15-.38,1.23-.01,1.54,1.07.9,1.13-1.87.01-1.54Z"/>
      <path class="cls-10" d="M37.45,13.44c.54.12,1.13.03,1.77.22.5.15,2.76,1.47,3.17,1.83.6.52.58,1.36,1.16,1.64.32.16.18-.11.39-.21.4-.18,1.38.55,1.28.92s-.68.24-.92.08c-.15-.09-.38-.72-.42-.29-.04.4.09.21.33.39.32.23,1.32,1.82,1.47,2.22.45,1.19.02,1.55-.12,2.64-.05.37-.02.78-.08,1.17-.08.48-.32.93-.34,1.41-1.38,1.95-3.14,3.15-5.14,4.42-4.26,2.72-10.46,2.79-15.37,2.67-.62-.02-1.56.1-2.11-.09-.3-.1-.47-.32-.82-.37-.56-.08-1.07-.04-1.68-.16-3.72-.78-9.18-3.09-11.01-6.58-.81-1.54-.12-1.88-.24-3.33.11.2.34.22.47.02.14-.22-.07-.53.02-.81.03-.09.31-.42.39-.56.88-1.54,1.55-2.51,2.96-3.65.09-.07.13-.14.27-.12.1.28.26.29.54.3-.12.21-.06.7.07.91.22.37.97.55,1.3.25.36-.32.52-1.06.02-1.33-.24-.13-.91-.18-1.15-.07,0-.2-.02-.41.01-.61.03-.17.14-.26.16-.34.36.03.62-.34.93-.52.51-.3,1.18-.47,1.57-.9.22.11.54.15.48.48-.62.07-.67.77-.54,1.25-.6-.13-1.54.74-.79,1.18.35.06.84.62,1.13.66.48.07.53-.32.86-.53-.04.29-.12.55-.12.83-.17,0-.34.08-.42.24-.05-.08-.71-.56-.82-.58-.77-.18-.89,1.06-.34,1.47.09.07.52.24.62.25-.06.36.2.63.3.95-.18,0-.36,0-.54,0,0-.06,0-.11-.03-.18-.02-.05-.83-.49-.92-.51s-.34-.06-.42-.03c-.18-.66-1.46-.88-1.48-.09,0,.26.64,1.02,1.01.86-.22.77.43,1.01,1.05.73.09-.04.41-.18.43-.19,0,.15,0,.54.06.65-.46.4-.5,1.21-.12,1.67-.62.42-.22,1.57.77,1.22.18-.06.7-.42.78-.56.02.25.25.41.48.48-.05.09-.08.3-.17.46-.13.23-.97,1.32-.78,1.51.43-.09.67.21,1.07.06.03-.01.06.02.12-.04.12-.12.44-.67.53-.85.23-.22.31-.2.6-.12-.23.3-.07.61-.05.92,0,.12-.07.25-.06.33-.64.26-1.1.95-.85,1.65.18.49.37.64.85.73.18.04.27.08.48.06-.04.18.17.13.27.12.39-.03,1.22-.17,1.58-.3-.33,1.14,1.53,1.31,1.02.2-.01-.03-.18-.3-.19-.32.54-.06,1.09-.16,1.63-.11.62.06,1.16.47,1.76.71-.71.84.83,1.07.54.24.93.1,1.6-.56,1.55-1.49.43-.16.88-.22,1.31-.44.11-.06.19-.15.29-.21.15.21.59.62.68.78s.05.44.1.52c.02.04.15.04.17.07.02.02.01.1.06.15.17.17.34.33.6.33-.08.08-.32.6-.3.74.04.3.38.27.48.33.02.01.06.1.12.14.46.3.89.72,1.4.22.11-.1.32-.45.33-.6.46.34.77-.06.6-.54.4.07.7-.29,1.07-.36.05.29.63.77.92.77.28,0,.63-.55.56-.83,1.99.36,3.64-.17,4.97-1.67.78-.88.98-1.98.98-3.13,0-.37.01-1.32-.06-1.63l.42-.12c.26.78,1.58.41,1.37-.42.94.08.81-1.01.38-1.54-.17-.21-.44-.29-.5-.36-.1-.11-.18-.64-.42-.74-.16-.07-.78-.05-.95.03.25-1.1-.67-1.97-1.73-2.02-.18-.31-.68-.44-1.01-.36.09-1.17-.44-2.12-1.41-2.73-.7-.44-1.33-.7-2.16-.61-.19-.23-.62-.2-.89-.24.14-.92-1.17-.68-1.13.06-.06,0-.29.12-.42.06.06-.32.13-.7.18-1.01.97.14,2.09.07,3.02.4.33.11.78.58.79-.16ZM40.36,15.06c-.22.03-.34.13-.27.36s.39.14.59.19c.24.06.7.47.86.15.21-.41-.85-.74-1.18-.7ZM40.95,16.31c-.36.11-.43.73.03.9,1.56.58.9-1.18-.03-.9ZM12.14,17.86c-.08.02-.8.76-.91.88-.22.25-1.05,1.32-1.1,1.58-.02.14.01.3-.02.46-.05.24-.32.85.01,1.03.39.21.33-.34.38-.51.14-.46.15-.36.16-.86,0-.18,1.02-1.42,1.21-1.63.11-.12.64-.55.66-.59.13-.26-.15-.42-.41-.35ZM14.82,18.69c-.51.08-.34.91.15.87.56-.05.39-.95-.15-.87ZM42.68,18.69c-.32.07-.33.52-.28.79.09.48,1.19.05,1.17-.35s-.57-.52-.89-.44ZM11.66,20.96c-.21.05-.23.23-.37.35-.22.19-.49.2-.51.63-.03.77,1.94.88,1.64-.22-.03-.11-.13-.2-.18-.3-.14-.33,0-.6-.59-.46ZM14.05,21.02c-.26-.26-1.12.05-.91.52.23.5,1.33-.09.91-.52ZM15.05,23.48c.32-.3.5-1.04.05-1.29-.26-.15-1.27-.06-1.49.19-.56.61.51,1.96,1.43,1.11ZM9.79,23.79c.25.25.77-.03.52-.44-.26-.43-.84.12-.52.44ZM9.55,24.95c-.2.21.2,1.15.44,1.22.65.19.17-.74.03-.98-.1-.17-.25-.47-.47-.24ZM13.47,26.42c-.08.03-.53.41-.59.52-.39.67.15,1.07.73,1.27.66.23,1.79.15,2.5.05.74-.1.86-1.01.22-1.16-.29-.07-.47.05-.72-.17-.05-.04-.04-.14-.06-.15.53.09.89.04.76-.61-.18-.9-1.47-.63-1.06.37-.25-.11-1.02-.19-1.31-.18.85-.94-1.54-2.11-1.22-.59.09.44.4.48.75.65ZM16.54,28.64c-.17,0-.49.19-.52.37-.06.41.87,1.14,1.16.44.2-.48-.17-.84-.65-.81ZM28.75,29.11c-.11.02-.59.46-.64.55-.2.35.28.95.57,1.11.41.24,1.1-.22,1.04-.68-.02-.16-.61-.92-.77-.96-.07-.02-.12-.03-.2-.02ZM23.98,29.29c-.25,0-.69.4-.7.67,0,.82,1.37.9,1.37.06,0-.28-.4-.74-.68-.73ZM24.58,30.72c-.11.03-.3.31-.35.42-.42.91,1.07,1.58,1.25.41.07-.45-.45-.97-.9-.84Z"/>
      <path class="cls-15" d="M26.09,9.57c-1.33.8-2.26,2.17-2.78,3.62-.11.3-.28.65-.22.97.57-.47,1.18-.89,1.79-1.31.1-.06.07-.16.09-.24.11-.39-.04-.76.18-1.07.15.12.27.17.3.38.21,1.53-.42,3.49-1.46,4.62-.31.34-.92.65-.9,1.15,0,.09.13.51.2.52.2.04.51-.28.7-.37.23-.11.79-.23.9-.41.36-1.01.52-2.12.85-3.14.23-.72.77-1.54.73-2.28.15.03.12-.07.16-.16.21-.47.27-1.03.91-.85-1.23,2.36-1.81,4.98-2.5,7.53.51-.19.94-.55,1.43-.8,0,.02.17.28.18.3-.32.35-.8.51-1.19.81-.14.11-.4.27-.42.44.09.09,1.66-.95,1.96-.89.05.04.22.14.3.18-.54.37-1.18.61-1.74.96-.24.15-1.05.57-.72.88,1-.42,1.89-1.04,2.77-1.67.17-.12.17-.13.3-.24.41-.35.81-.75,1.16-1.2.3-.39.57-.81.75-1.28-.49-1.14-1.1-2.16-2.08-2.95.04-.11.09-.2.12-.3.36.05.77.53,1.01.81.41.48.78,1.1,1.09,1.65.06.11.03.37.18.14.2-.31.55-1.63.45-1.97-.05-.18-.62-.37-.81-.44-.58-.24-1.22-.5-1.86-.43.07-.23.13-.42.18-.65.21.08.51.06.71.12.23.07.65.21.89.3.12.04.64.35.71.3.19-.39-.22-.5-.53-.54.07-.19-.14-.4.32-.35,1.14.11.85,2.11.66,2.85-.72,2.86-2.87,4.69-5.36,6.01-.06.03-.5.14-.17.19.68.09,1.73-.29,2.38-.53,2.19-.83,4.29-2.55,5.06-4.83.39-1.15.48-2.39.58-3.59l.23-.22s.1.05.14.12c.17.31.07.68.03,1.01-.02.15-.04.34-.06.48-.05.32-.12.69-.18,1.01-.07.36-.15.85-.24,1.19-.12.46-.33,1.01-.48,1.49-.57.18-.81.78-1.19,1.22-1.03,1.18-3.33,2.63-4.88,2.89-.16.03-.41-.04-.56,0-.1.03-.09.17-.1.17-.15.1-1.21-.15-1.34.12s.12,1.88.15,2.32c.01.14-.03.29.06.42-.01,0-.04.14-.2.12-.15-.02-.19-.17-.21-.18-.12-.88-.26-1.79-.24-2.68,0-.05.08-.14.06-.27-.02-.12-.12-.14-.12-.15-.04-.11.24-.47-.03-.42-.08.02-1.01.93-1.13,1.07-.44.48-1.23,1.54-1.43,2.14-.07.22.07.47-.32.42,0,0-.17-.11-.18-.12-.21-.55-.24-1.15-.33-1.73-.12,0-.3.3-.38.4-.27.37-.63.92-.84,1.33-.14.25-.32.39-.15.65.21.32,1.01.98,1.33,1.28.14.13.43.29.54.39.05.04.08.09.12.12.24.22.72.7.89.95.04.05.34.6.35.64.07.3-.08.42-.32.2-.22-.21-.48-.61-.68-.84-.56-.64-1.1-1.06-1.73-1.64-.18-.16-.64-.77-.81-.8-.23-.04-.47.85-.55,1-.09.18-.41.73-.53.85-.06.06-.09.03-.12.04-.12.01-.23,0-.24-.15-.03-.39,1.13-1.78,1.01-2.19-.03-.11-.28-.21-.14-.4.11-.16.41.11.54-.06.34-.56.67-1.15,1.05-1.69.47-.67,1.17-1.28,1.35-2.1.02-.11,0-.08-.08-.08-.21-.01-.51.07-.78.06-.53-.01-1.02-.15-1.51-.3-.77-.23-1.71-.52-1.73-1.49,0-.28.08-.54.12-.83,0-.02,0-.04,0-.06.14.03.12-.07.17-.16.29-.55.55-1.1.88-1.62.62-1,1.21-1.53,1.51-2.74.05-.18.03-.38.06-.54.03-.19.16-.43.18-.69s-.07-.86.08-1.03c.02-.03.09,0,.1-.01.55.21.35,1.21.29,1.69-.28,2.07-1.75,3.09-2.56,4.88s.21,2.13,1.78,2.4c.25.04.61.15.84.02.25.08.51.15.77.12.2-.02.37-.16.29-.38-.02-.05-.37-.22-.47-.31-1.36-1.14-.16-4.66.06-6.2.01-.08-.06-.13-.06-.14,0-.04,0-.08,0-.12.17-.06.2-.18.42-.3.01,0,.04,0,.06,0l-.51,3.57,1.07-1.19c.13-.69.31-1.41.56-2.06.05-.13.16-.45.18-.5.2-.44.74-1.21,1.05-1.6.23-.29,1.19-1.42,1.53-1.37.1.02.32.19.34.29ZM24.95,13.38c-.1-.09-.85.49-.98.6-.16.12-1.03.85-1.07.95-.04.09-.09.83-.09.98,0,.13.08.95.12.98.1.02.12-.04.18-.09.16-.13.71-.74.86-.92.57-.69.85-1.62.98-2.5ZM22.33,15.58c-.69.54-1.5,1.69-1.04,2.56.08.02,1.18-.79,1.2-.87,0-.56-.1-1.13-.17-1.68ZM22.69,17.79c-.15-.11-1.01.68-1.19.81.15.25.52.68.83.53.12-.27.55-.4.52-.7,0-.06-.14-.62-.17-.64ZM24.66,18.03c-.06-.06-1.12.52-1.18.61-.09.15.07.88.4.8.49-.12.88-.92.77-1.4ZM21.26,22.73l.93-1.54c.44-.62,1.67-1.29.82-2.08-1.06.75-1.95,2.3-1.75,3.63ZM24.92,19.28v.06s.04-.04,0-.06Z"/>
      <path class="cls-12" d="M9,25.35c1.83,3.49,7.29,5.8,11.01,6.58.61.13,1.12.08,1.68.16.35.05.52.27.82.37.56.19,1.49.07,2.11.09,4.91.12,11.1.05,15.37-2.67,1.99-1.27,3.75-2.46,5.14-4.42.83-1.17,1.6-2.96,2.05-4.35.36-1.13.53-2.29.64-3.47.03-.17.39-.06.44.02.1.15-.11.61-.15.81-.61,4.08-2.23,7.96-5.73,10.35-1.86,1.27-3.98,2.56-6.17,3.17-4.24,1.18-8.21.93-12.55.97-.5,0-.63.13-1.17-.07-.23-.08-.57-.37-.74-.39-.2-.03-.61.07-.92.03-.47-.05-1.09-.23-1.56-.35-4.67-1.16-9.82-3.8-11.83-8.41-.1-.23-.43-1.02-.46-1.22s.15-.26.29-.17c.06.04.35.9.42,1.07.16.36.37.75.58,1.09.17.28.37.76.72.79Z"/>
      <path class="cls-8" d="M32.04,12.79c.05.35.07.72.06,1.07.13-.02.39.04.48-.03.05-.04.18-1.11.18-1.26s-.06-.22-.07-.27c-.06-.62-.38-1.44.6-.98.23.11.16.16.24.27l-.23.22c-.1,1.2-.19,2.44-.58,3.59-.76,2.27-2.87,4-5.06,4.83-.65.25-1.7.62-2.38.53-.32-.04.11-.16.17-.19,2.5-1.32,4.64-3.15,5.36-6.01.19-.75.48-2.74-.66-2.85-.46-.04-.25.16-.32.35,0,.01-.21.11-.18.24-.25-.08-.66-.23-.89-.3.23-1.04,1.86-1.78,2.7-1.06.34.3.51,1.37.57,1.84Z"/>
      <path class="cls-8" d="M26.44,12.01c.04.73-.5,1.56-.73,2.28-.33,1.01-.49,2.13-.85,3.14-.11.18-.67.3-.9.41-.19.09-.5.41-.7.37-.06-.01-.19-.43-.2-.52-.02-.5.59-.81.9-1.15,1.04-1.13,1.67-3.09,1.46-4.62-.03-.22-.15-.26-.3-.38-.02-.02-.04-.1-.09-.12-.13-.03-.61.65-.62.81-.01.24.33.37.54.38-.02.08.01.18-.09.24-.61.41-1.22.84-1.79,1.31-.05-.31.12-.67.22-.97.52-1.45,1.45-2.81,2.78-3.62.09.39-.37.76-.34.97.02.2.56.7.66,1.01.06.19.04.28.05.46Z"/>
      <path class="cls-8" d="M20.79,19.75c-.23.14-.59.03-.84-.02-1.58-.28-2.6-.6-1.78-2.4s2.28-2.81,2.56-4.88c.06-.48.26-1.48-.29-1.69.22-.2.25-.19.54-.3.33,1.45-.19,2.95-.65,4.32-.56,1.63-2.04,4.13.48,4.97Z"/>
      <path class="cls-1" d="M16.92,13.8s.01.13.08.18c.08.06.19.04.21.05.02,0,.03.12.08.16.43.37.51.43.28,1.03-.04-.02-.15,0-.24-.03-.21-.08-.27-.18-.54-.15.06-.32-.25-.37-.48-.48-.01,0-.04-.08-.1-.11-.26-.12-.41-.04-.67-.01-.44.05-.63.04-.95.39-.04.05-.04.14-.06.15-.14.14-.63.53-.68.66-.06.14,0,.27-.03.36s-.14.17-.16.34c-.03.2,0,.41-.01.61-.02,0-.23.22-.24.24-.27-.01-.44-.02-.54-.3-.04-.1-.12-.63-.12-.71.04-1.02,1.65-2.51,2.65-2.62.3-.03,1.29.07,1.52.24Z"/>
      <path class="cls-7" d="M21.56,10.76c-.11.26.01.56,0,.86-.01.35-.14.75-.18,1.1,0,.04,0,.08,0,.12-.28.81-.49,1.66-.77,2.47-.37,1.06-1.53,3.01-.12,3.81.38.21,1.31.22,1.07.74-.27.03-.52-.04-.77-.12-2.52-.84-1.03-3.34-.48-4.97.47-1.37.99-2.87.65-4.32.03-.01.07-.09.16-.11.27-.05.35.21.44.41Z"/>
      <path class="cls-13" d="M12.75,16.18c0,.08.08.61.12.71-.14-.02-.18.05-.27.12-1.41,1.14-2.07,2.11-2.96,3.65-.08.14-.37.47-.39.56-.08.29.13.59-.02.81-.13.2-.36.18-.47-.02-.03-.38-.22-.57-.03-1.01.06-.13.16-.2.22-.31.73-1.41,1.58-2.52,2.73-3.64.3-.29.71-.68,1.07-.86Z"/>
      <path class="cls-7" d="M27.93,11.3s.1,0,.15.06c.15.17.01.35-.03.54-.05.23-.1.43-.18.65-.03.09-.04.19-.06.24-.03.1-.08.19-.12.3-.1.29-.29.62-.4.94-.29.86-.85,2.86-.34,3.64.25.38.72.46.92.84-.13.11-.13.12-.3.24-.07-.12-.21-.13-.3-.18-.08-.04-.24-.14-.3-.18-.02-.02-.34-.34-.36-.36-.01-.01-.17-.28-.18-.3-.59-1.4.49-3.89.97-5.25.13-.37.15-1.04.52-1.18Z"/>
      <path class="cls-8" d="M23.17,12.25c-.03.06-.13.37-.18.5-.25.65-.44,1.37-.56,2.06l-1.07,1.19.51-3.57c.42-.2.27-.09.62-.12.22-.02.45-.1.68-.06Z"/>
      <path class="cls-13" d="M37.45,13.44c0,.74-.46.28-.79.16-.93-.32-2.06-.26-3.02-.4.02-.14.04-.33.06-.48,1.02.09,2.27.07,3.23.43.15.06.44.27.52.28Z"/>
      <path class="cls-13" d="M20.07,12.49c-.03.16-.01.35-.06.54-1.02-.26-1.87.69-2.8,1.01-.02-.02-.13,0-.21-.05-.07-.06-.08-.18-.08-.18.09-.13.21-.26.34-.35.34-.23,1.71-.92,2.07-.96.24-.02.5.02.74,0Z"/>
      <path class="cls-10" d="M19.1,11.02c.66.67-1.24,1.52-1.56.82-.34-.75,1.15-1.23,1.56-.82Z"/>
      <path class="cls-10" d="M43.45,14.64c.48-.16,1.21.12,1.27.68.03.31-.38.65-.63.5-.19-.11-1.13-1.02-.64-1.19Z"/>
      <path class="cls-10" d="M32.69,12.31s.07.12.07.27-.13,1.22-.18,1.26c-.09.07-.35,0-.48.03,0-.36-.01-.72-.06-1.07.14-.02.44.05.54-.03.12-.09-.02-.36.12-.45Z"/>
      <path class="cls-8" d="M21.8,12.43c-.22.12-.25.23-.42.3.04-.35.16-.75.18-1.1.01-.3-.1-.61,0-.86.25.59.12,1.06.24,1.67Z"/>
      <path class="cls-12" d="M6.59,21.3c.1-.02.45.55.48.65.02.08.03.15-.07.18-.36.11-.67-.77-.41-.83Z"/>
      <path class="cls-13" d="M46.09,13.08c-.04-.23.14-.19.28-.35.08-.09.13-.03.14.02.02.12-.25.42-.42.33Z"/>
      <path class="cls-10" d="M5.95,41.85c1.12-.33,1.06,2.44-.01,1.54-.37-.31-.5-1.38.01-1.54Z"/>
      <path class="cls-1" d="M41.92,23.21c.07.32.06,1.26.06,1.63,0,1.15-.21,2.25-.98,3.13-1.33,1.5-2.98,2.03-4.97,1.67-.24-.04-.47-.11-.67-.25-.23-.15-.36-.45-.63-.53.06-.39-.48-.94-.54-1.37-.07-.59.21-1.09.18-1.67.04-.04.09-.24.18-.3.86.07.19-1.33.1-1.68-.11-.41-.16-.88-.04-1.3.16-.57.84-1.44.93-2.02.03-.22-.1-.33-.1-.48,0-.25.49-.44.7-.52,2.86-1.16,5.18,1,5.79,3.68ZM37.14,23.4c-.98.14-1.58,1.39-1.8,2.25-.1.4-.07.7-.12,1.07-.02.17-.13.32-.15.45-.07.58.82,1.55,1.4,1.57.28,0,.93-.08,1.24-.12.7-.1,1.93-.32,2.25-1.02.23-.5.53-2.51.46-3.04-.05-.35-.34-.85-.69-.98-.39-.15-2.16-.23-2.6-.17Z"/>
      <path class="cls-2" d="M19,27.08s.24.5.27.53c.42.46.84-.08,1.16-.35.3.31.81.16,1.19.12.2.23.46.63.68.84.24.22.38.1.32-.2,0-.04-.31-.59-.35-.64.44-.05.87-.16,1.31-.24-.2.3-.1.91.33.9.14,0,.23-.15.34-.12.16.04.78.78,1.16.93.45.19,1.08.35,1.52.12.28-.15.35-.28.7-.4.05.93-.61,1.59-1.55,1.49-.06-.16-.43-.2-.54-.24-.61-.24-1.15-.65-1.76-.71-.54-.05-1.09.05-1.63.11-.31-.31-.59.03-.83.12-.36.13-1.19.26-1.58.3-.1,0-.31.07-.27-.12.46-.04.94-.33.62-.83-.41-.64-1.56.17-1.1.77-.48-.1-.67-.24-.85-.73-.25-.7.21-1.39.85-1.65Z"/>
      <path class="cls-13" d="M34.36,25.83c.04.58-.25,1.08-.18,1.67-.35.02-.44.62-.58.87-.3.54-.73.7-1.34.61-.22-.03-.39-.19-.56-.22-.59-.12-.83.72-1.5.52-.02-.03-.14-.03-.17-.07-.05-.09-.02-.37-.1-.52s-.54-.56-.68-.78c-.02-.02,0-.17-.07-.26-.27-.39-.72-.69-.83-1.17.02,0,.04,0,.06,0,.86,0,1.37-.38,2.14-.65.01.07.5,1.16.54,1.22.09.12.14.07.23.09.51.15.96-.07,1.28-.48.14-.19.59-1.04.63-1.25.3.42.61,1.04,1.13.42Z"/>
      <path class="cls-2" d="M37.81,18.09c.3.49.48.77,1.13.6,0,.13.21.26.34.29.57.13,1.65-.2,1.21-.94,1.06.06,1.98.92,1.73,2.02-.3.13-.41.56-.13.78.03.03.46.23.49.24.06.43-.55.57-.6.81-.01.07.05.75.07.82.04.13.16.17.29.16.01.07-.02.18,0,.24l-.42.12c-.61-2.67-2.93-4.84-5.79-3.68-.21.08-.69.28-.7.52-.05.01-.14-.01-.18,0l-.06-.95c.05-.07.15-.24.18-.3.17.16.37.15.58.07.06-.02.87-.49.91-.52.22-.2.23-.53.05-.76-.32-.43-1.15-.11-1.6-.22-.12-.03-.59-.37-.71-.48.64.06,1.47-.13,2.06.06.25.08.53.29.67.52s.14.63.49.62Z"/>
      <path class="cls-1" d="M39.48,17.67c-.13.03-.54.84-.54,1.01-.65.18-.83-.1-1.13-.6-.62-1-1-1.85-2.4-1.82-.55.01-.79.3-1.29.39-.37-.33-.27-.29-.48-.65.21-1.03,1.3-1.56,2.26-1.67.83-.09,1.46.17,2.16.61.97.61,1.51,1.56,1.41,2.73ZM36.38,15.17c-.42-.03-.8.01-1.19.18,0,.09.21.1.27.11.25.03.55.01.8.07,1.11.24,1.51,1.05,2.13,1.83.06.07.07.16.19.14.26-1.15-1.17-2.24-2.2-2.32Z"/>
      <path class="cls-4" d="M28.35,26.48c.11.48.55.78.83,1.17.06.09.05.24.07.26-.1.07-.18.15-.29.21-.44.22-.88.29-1.31.44-.34.12-.41.26-.7.4-.44.23-1.07.06-1.52-.12-.38-.15-1-.89-1.16-.93-.11-.03-.2.11-.34.12-.43.01-.53-.59-.33-.9,1.18-.21,2.47-.28,3.64-.49.5-.09.57-.15,1.12-.16Z"/>
      <path class="cls-2" d="M17.33,18.44c.02.97.95,1.26,1.73,1.49.19,1.21,0,2.25-.48,3.36-.23.53-.55,1.02-.82,1.53-.23-.06-.45-.23-.48-.48.01-.02.06-.29.06-.33.01-.73-1.17-.62-1.61-.33-.38-.46-.34-1.27.12-1.67,0,.01.22.19.24.2.23.13,1.17.14,1.41.05.36-.14.34-.92.37-1.26.53,0,.47-.8-.08-.64-.18.05-.18.25-.22.29-.12.12-.7.11-.89.12-.1-.32-.35-.6-.3-.95.12,0,.6-.15.64-.28.05-.15-.03-.72-.11-.85.08-.16.24-.24.42-.24ZM17.38,22.56c-.17.05-.31.39-.27.54.01.05.57.8.64.85.44.3.37-.17.45-.39.03-.09.14-.16.15-.27.05-.32-.63-.83-.97-.73Z"/>
      <path class="cls-8" d="M19.06,19.93c.5.15.99.29,1.51.3.27,0,.57-.08.78-.06.09,0,.11-.02.08.08-.18.82-.88,1.43-1.35,2.1-.38.54-.71,1.12-1.05,1.69-.13.16-.43-.11-.54.06-.13.19.11.29.14.4.13.41-1.04,1.8-1.01,2.19.01.15.12.16.24.15-.4.15-.64-.15-1.07-.06-.19-.19.66-1.28.78-1.51.09-.16.12-.37.17-.46.27-.51.59-1,.82-1.53.48-1.1.67-2.15.48-3.36Z"/>
      <path class="cls-2" d="M13.94,26.36c.29-.01,1.06.07,1.31.18.02,0,.28.22.3.24.01.01.01.11.06.15.25.23.43.11.72.17.65.15.52,1.06-.22,1.16-.7.09-1.84.17-2.5-.05-.58-.2-1.12-.6-.73-1.27.06-.1.51-.49.59-.52.02,0,.42-.06.48-.06Z"/>
      <path class="cls-2" d="M34.18,27.49c.05.43.6.98.54,1.37-.04.26-.26.42-.18.83-.37.06-.67.42-1.07.36-.14-.02-.58-.31-.65.06-.41,0-.94-.59-1.31-.24-.11-.25-.48-.28-.65-.12-.26,0-.43-.16-.6-.33-.05-.05-.04-.13-.06-.15.67.2.91-.64,1.5-.52.17.03.33.19.56.22.61.09,1.04-.07,1.34-.61.14-.26.23-.86.58-.87Z"/>
      <path class="cls-12" d="M43.59,20.76c.06.07.33.15.5.36.43.54.56,1.63-.38,1.54-.21-.02-.41-.19-.68-.18-.32.02-.43.34-.69.35-.12,0-.25-.03-.29-.16-.02-.07-.08-.75-.07-.82.04-.24.65-.37.6-.81.06,0,.15-.06.21-.05.36.02.55.16.8-.24Z"/>
      <path class="cls-12" d="M16.26,16.3c.08.02.23.18.34.22.1.04.26.05.31.07.12.06.51.27.55.37.11.23,0,.38-.02.58,0,.02,0,.04,0,.06-.33.22-.38.61-.86.53-.28-.04-.78-.6-1.13-.66-.74-.44.2-1.31.79-1.18Z"/>
      <path class="cls-5" d="M17.87,21c-.03.34-.01,1.12-.37,1.26-.24.1-1.17.08-1.41-.05-.03-.01-.24-.19-.24-.2-.05-.12-.05-.5-.06-.65.23-.13.38-.32.36-.6.18,0,.36,0,.54,0,.19,0,.78,0,.89-.12-.02.23.05.36.3.36Z"/>
      <path class="cls-5" d="M15.05,23.48c-.92.85-2-.5-1.43-1.11.22-.24,1.23-.33,1.49-.19.45.26.27.99-.05,1.29Z"/>
      <path class="cls-13" d="M12.14,17.86c.26-.08.54.08.41.35-.02.04-.55.47-.66.59-.2.22-1.21,1.46-1.21,1.63-.01.5-.02.4-.16.86-.05.18,0,.72-.38.51-.34-.18-.06-.79-.01-1.03.03-.16,0-.31.02-.46.05-.26.88-1.33,1.1-1.58.11-.12.83-.86.91-.88Z"/>
      <path class="cls-9" d="M13.41,17.19s.22-.23.24-.24c.24-.11.91-.07,1.15.07.5.28.34,1.01-.02,1.33-.33.3-1.08.12-1.3-.25-.13-.21-.19-.7-.07-.91Z"/>
      <path class="cls-9" d="M16.14,20.76c.02.27-.12.46-.36.6-.02.01-.34.15-.43.19-.62.29-1.28.04-1.05-.73.04-.13.38-.74.48-.77.08-.03.32,0,.42.03s.9.46.92.51c.03.06.02.11.03.18Z"/>
      <path class="cls-9" d="M17.28,24.34c-.08.14-.6.5-.78.56-.99.35-1.4-.8-.77-1.22.43-.29,1.62-.41,1.61.33,0,.04-.05.31-.06.33Z"/>
      <path class="cls-8" d="M21.62,27.37c-.38.04-.89.19-1.19-.12-.4-.4-.73-1.26-1.31-1.43-.29-.09-.36-.1-.6.12.08-.16.33-1.04.55-1,.17.03.63.63.81.8.62.57,1.16,1,1.73,1.64Z"/>
      <path class="cls-5" d="M32.81,30.11c-.03.16.07.33.06.48s-.22.49-.33.6c-.5.5-.94.08-1.4-.22-.07-.04-.1-.13-.12-.14.14-.24.28-.77.48-.95.37-.35.9.25,1.31.24Z"/>
      <path class="cls-9" d="M16.92,18.68c.08.13.16.71.11.85-.04.13-.52.28-.64.28-.09,0-.53-.18-.62-.25-.55-.41-.43-1.64.34-1.47.1.02.77.5.82.58Z"/>
      <path class="cls-9" d="M28.75,29.11c.08-.01.12,0,.2.02.16.05.75.8.77.96.06.46-.64.92-1.04.68-.28-.16-.76-.76-.57-1.11.06-.1.53-.53.64-.55Z"/>
      <path class="cls-12" d="M11.66,20.96c.59-.14.45.13.59.46.04.1.14.19.18.3.31,1.09-1.66.99-1.64.22.02-.43.28-.44.51-.63.14-.12.16-.3.37-.35Z"/>
      <path class="cls-9" d="M16.8,15.05c.26-.03.33.07.54.15.09.03.2.01.24.03.03.01.21.28.23.34.13.56-.43.86-.88,1.03-.05-.02-.21-.03-.31-.07-.11-.05-.26-.21-.34-.22-.14-.48-.08-1.18.54-1.25Z"/>
      <path class="cls-2" d="M35.91,14.33c-.96.11-2.06.64-2.26,1.67-.04-.06-.21-.25-.3-.24,0-.17.07-.41-.12-.36.09-.34.17-.83.24-1.19.12.06.36-.06.42-.06.05,0,.24.21.37.25.28.1.7.05.76-.31.28.04.71,0,.89.24Z"/>
      <path class="cls-4" d="M20.43,27.25c-.32.27-.74.81-1.16.35-.03-.04-.27-.5-.27-.53,0-.08.07-.21.06-.33-.02-.32-.17-.62.05-.92.58.17.91,1.02,1.31,1.43Z"/>
      <path class="cls-9" d="M40.49,18.03c.44.74-.64,1.07-1.21.94-.13-.03-.34-.15-.34-.29,0-.17.4-.98.54-1.01.33-.08.83.05,1.01.36Z"/>
      <path class="cls-9" d="M24.58,30.72c.45-.13.96.39.9.84-.17,1.17-1.67.5-1.25-.41.05-.11.24-.39.35-.42Z"/>
      <path class="cls-12" d="M13.94,26.36c-.05,0-.45.05-.48.06-.34-.17-.66-.22-.75-.65-.32-1.52,2.07-.34,1.22.59Z"/>
      <path class="cls-9" d="M43.59,20.76c-.25.4-.44.26-.8.24-.07,0-.16.06-.21.05-.03,0-.46-.21-.49-.24-.28-.22-.17-.64.13-.78.17-.07.79-.1.95-.03.23.11.32.63.42.74Z"/>
      <path class="cls-5" d="M36.03,29.64c.07.28-.29.82-.56.83-.29,0-.87-.48-.92-.77-.08-.41.14-.57.18-.83.27.08.41.37.63.53.21.14.43.2.67.25Z"/>
      <path class="cls-5" d="M14.78,20.05c-.1.04-.44.64-.48.77-.36.16-1.01-.6-1.01-.86.02-.79,1.3-.57,1.48.09Z"/>
      <path class="cls-5" d="M23.98,29.29c.27-.01.68.45.68.73,0,.84-1.38.76-1.37-.06,0-.27.44-.66.7-.67Z"/>
      <path class="cls-13" d="M16.32,14.57c-.39.44-1.06.6-1.57.9-.31.19-.57.55-.93.52.03-.08-.03-.22.03-.36.06-.13.55-.52.68-.66.36-.06.73-.31,1.01-.54.26-.03.41-.1.67.01.06.03.09.1.1.11Z"/>
      <path class="cls-12" d="M15.55,26.78s-.28-.23-.3-.24c-.41-1,.87-1.27,1.06-.37.13.65-.23.7-.76.61Z"/>
      <path class="cls-12" d="M19,29.46c-.46-.61.69-1.41,1.1-.77.32.5-.16.79-.62.83-.21.02-.3-.02-.48-.06Z"/>
      <path class="cls-5" d="M43.7,22.67c.21.83-1.11,1.19-1.37.42-.02-.06.01-.17,0-.24.26-.01.37-.33.69-.35.27-.02.47.16.68.18Z"/>
      <path class="cls-9" d="M22.16,29.22s.18.29.19.32c.51,1.11-1.35.95-1.02-.2.24-.09.52-.43.83-.12Z"/>
      <path class="cls-5" d="M16.54,28.64c.47-.03.85.33.65.81-.3.7-1.22-.03-1.16-.44.03-.18.34-.36.52-.37Z"/>
      <path class="cls-9" d="M40.95,16.31c.92-.28,1.58,1.48.03.9-.46-.17-.39-.79-.03-.9Z"/>
      <path class="cls-12" d="M42.68,18.69c.33-.08.88.03.89.44s-1.08.83-1.17.35c-.05-.27-.04-.71.28-.79Z"/>
      <path class="cls-9" d="M35.01,14.1c-.05.36-.47.41-.76.31-.13-.04-.33-.25-.37-.25-.03-.74,1.27-.98,1.13-.06Z"/>
      <path class="cls-13" d="M40.36,15.06c.32-.04,1.39.29,1.18.7-.16.32-.63-.09-.86-.15-.2-.05-.52.04-.59-.19s.05-.33.27-.36Z"/>
      <path class="cls-9" d="M31.5,29.87c-.19.18-.34.71-.48.95-.1-.06-.44-.04-.48-.33-.02-.14.22-.66.3-.74.17-.16.54-.13.65.12Z"/>
      <path class="cls-13" d="M9.55,24.95c.23-.23.37.07.47.24.14.24.62,1.17-.03.98-.24-.07-.65-1.02-.44-1.22Z"/>
      <path class="cls-12" d="M14.05,21.02c.43.43-.68,1.02-.91.52-.21-.47.65-.78.91-.52Z"/>
      <path class="cls-12" d="M14.82,18.69c.54-.08.71.82.15.87-.49.04-.66-.79-.15-.87Z"/>
      <path class="cls-9" d="M33.47,30.05c.17.47-.13.88-.6.54,0-.15-.09-.32-.06-.48.08-.37.51-.08.65-.06Z"/>
      <path class="cls-5" d="M26.09,30.05c.29.83-1.25.6-.54-.24.11.04.48.08.54.24Z"/>
      <path class="cls-5" d="M9.79,23.79c-.31-.31.26-.86.52-.44s-.27.69-.52.44Z"/>
      <path class="cls-8" d="M35.25,20.05c-.24.09-.76,1.28-.94,1.59-.93,1.52-3.1,3.37-4.73,4.08-.42.18-1.23.24-1.17.76-.02,0-.04,0-.06,0-.54,0-.61.07-1.12.16-1.18.21-2.47.28-3.64.49-.44.08-.87.19-1.31.24-.17-.25-.65-.73-.89-.95.14-.02.87-.34.89-.4.1-.28-.33-.54-.47-.74s-.26-.46-.37-.67c-.07-.13-.13-.45-.17-.52.4.05.25-.2.32-.42.2-.6.99-1.66,1.43-2.14.13-.14,1.06-1.05,1.13-1.07.26-.06-.01.31.03.42-.14-.03-.2.03-.3.09-.21.12-1.22,1.49-1.33,1.76-.57,1.35-.06,2.58.98,3.48.2.18.92.86,1.05.39.06-.23-.55-.56-.75-.78l2.89-.06c.17-.01.34-.09.51-.12.45-.07.8-.1,1.23-.29.26-.11,1.24-.65,1.21-.93-.02-.21-.8-.61-1.02-.63,1.38-.62,2.67-1.45,3.89-2.33.78-.56,2.17-1.58,2.66-2.37l.06.95Z"/>
      <path class="cls-8" d="M33.64,16c.21.36.1.32.48.65,0,0-.02.08.04.12.08.06.33.11.44.12.12.11.6.45.71.48.08.15.08.33.12.48-.4.16-.43.77-.69,1.13-.16.22-.56.58-.77.78-.98.89-4.3,3.32-5.49,3.56s-2.45.21-3.64.31c-.03-.44-.29-2.04-.15-2.32s1.19-.02,1.34-.12c.05.28.65.38.9.44,3.4.7,6.51-2.52,6.42-5.85.08-.02.26.18.3.24Z"/>
      <path class="cls-8" d="M27.87,18.5c-.2-.38-.67-.46-.92-.84-.51-.79.05-2.78.34-3.64.11-.32.3-.65.4-.94.98.78,1.6,1.8,2.08,2.95-.18.46-.45.89-.75,1.28-.34.44-.74.85-1.16,1.2Z"/>
      <path class="cls-4" d="M24.48,23.98s.06.17.21.18c.16.02.19-.12.2-.12.11-.04,1.66.03,1.96,0-.13.58.06,1.11.36,1.61-.17.03-.33.1-.51.12l-2.89.06c-.26-.28-.85-.95-.94-1.29-.03-.13,0-.26-.01-.37,0-.16.07-.17.21-.18.15-.02,1.34-.02,1.4,0Z"/>
      <path class="cls-7" d="M35.43,17.85c.03.12.14.14.12.39,0,.06-.15.49-.18.57-.03.06-.13.22-.18.3-.49.79-1.88,1.81-2.66,2.37-1.22.88-2.51,1.72-3.89,2.33-.5-.05-1.28.2-1.79.24-.31.03-1.86-.04-1.96,0-.09-.13-.05-.28-.06-.42,1.2-.1,2.46-.07,3.64-.31s4.51-2.67,5.49-3.56c.21-.19.62-.56.77-.78.26-.36.29-.97.69-1.13Z"/>
      <path class="cls-8" d="M32.75,16.89c-.39,1.25-.55,2-1.58,2.92-1.14,1.01-3.01,1.88-4.5,1.19,1.55-.25,3.85-1.71,4.88-2.89.38-.44.62-1.04,1.19-1.22Z"/>
      <path class="cls-10" d="M20.01,13.02c-.31,1.21-.89,1.74-1.51,2.74-.33.53-.59,1.08-.88,1.62-.04.08-.02.19-.17.16.02-.21.12-.35.02-.58-.05-.1-.43-.31-.55-.37.45-.17,1.01-.47.88-1.03-.02-.06-.19-.33-.23-.34.23-.61.15-.66-.28-1.03-.05-.04-.06-.15-.08-.16.92-.32,1.77-1.27,2.8-1.01Z"/>
      <path class="cls-7" d="M33.23,15.41c.19-.05.11.19.12.36.09,3.34-3.01,6.56-6.42,5.85-.25-.05-.86-.15-.9-.44,0,0,0-.14.1-.17.15-.05.39.02.56,0,1.49.69,3.36-.18,4.5-1.19,1.03-.91,1.19-1.67,1.58-2.92.15-.48.36-1.03.48-1.49Z"/>
      <path class="cls-8" d="M21.56,19.87c.24-.52-.7-.53-1.07-.74-1.41-.8-.25-2.75.12-3.81.28-.82.49-1.66.77-2.47,0,0,.07.05.06.14-.21,1.54-1.41,5.06-.06,6.2.11.09.45.25.47.31.07.22-.09.36-.29.38Z"/>
      <path class="cls-4" d="M21.09,23.98s.17.11.18.12c.04.06.1.38.17.52.11.22.23.48.37.67,0,.39-.44.64-.54,1.01-.11-.1-.39-.25-.54-.39-.33-.3-1.13-.97-1.33-1.28-.17-.26.01-.4.15-.65.52-.04,1.04-.25,1.55,0Z"/>
      <path class="cls-8" d="M24.95,13.38c-.13.88-.41,1.81-.98,2.5-.15.18-.7.79-.86.92-.06.05-.08.11-.18.09-.04-.03-.12-.85-.12-.98,0-.16.05-.89.09-.98.05-.1.91-.83,1.07-.95.13-.1.88-.69.98-.6Z"/>
      <path class="cls-8" d="M27.87,12.55c.64-.06,1.28.19,1.86.43.19.08.75.27.81.44.1.34-.25,1.66-.45,1.97-.15.22-.12-.03-.18-.14-.3-.55-.68-1.18-1.09-1.65-.24-.28-.65-.75-1.01-.81.02-.05.03-.14.06-.24Z"/>
      <path class="cls-7" d="M24.18,20.88s.1.03.12.15c.02.13-.06.21-.06.27-.51.45-1.36,1.43-1.43,2.11-.03.29.03.49.06.74.01.12-.02.25.01.37.09.34.68,1.01.94,1.29.2.21.81.55.75.78-.13.47-.84-.21-1.05-.39-1.04-.91-1.55-2.13-.98-3.48.12-.27,1.12-1.64,1.33-1.76.1-.06.16-.12.3-.09Z"/>
      <path class="cls-8" d="M24.48,23.98c-.07-.03-1.25-.02-1.4,0-.13.01-.21.02-.21.18-.03-.25-.09-.45-.06-.74.07-.69.92-1.66,1.43-2.11-.03.89.12,1.8.24,2.68Z"/>
      <path class="cls-8" d="M21.26,22.73c-.2-1.33.69-2.88,1.75-3.63.85.79-.38,1.46-.82,2.08l-.93,1.54Z"/>
      <path class="cls-8" d="M22.33,15.58c.07.56.16,1.13.17,1.68-.03.09-1.12.89-1.2.87-.47-.87.35-2.02,1.04-2.56Z"/>
      <path class="cls-8" d="M19.54,23.98c.22-.4.57-.96.84-1.33.08-.1.25-.4.38-.4.09.58.12,1.17.33,1.73-.51-.25-1.03-.04-1.55,0Z"/>
      <path class="cls-8" d="M27.57,18.74c-.88.62-1.76,1.25-2.77,1.67-.32-.31.48-.73.72-.88.56-.36,1.21-.59,1.74-.96.09.05.23.06.3.18Z"/>
      <path class="cls-8" d="M22.69,17.79s.16.58.17.64c.03.3-.4.43-.52.7-.31.15-.69-.28-.83-.53.17-.13,1.03-.92,1.19-.81Z"/>
      <path class="cls-8" d="M24.66,18.03c.1.48-.29,1.28-.77,1.4-.34.08-.49-.65-.4-.8.05-.09,1.12-.67,1.18-.61Z"/>
      <path class="cls-2" d="M21.38,26.42s-.07-.08-.12-.12c.09-.37.53-.63.54-1.01.14.2.57.45.47.74-.02.05-.75.38-.89.4Z"/>
      <path class="cls-8" d="M26.98,18.38c-.31-.06-1.87.98-1.96.89.02-.17.28-.33.42-.44.38-.29.86-.46,1.19-.81.02.02.34.34.36.36Z"/>
      <path class="cls-14" d="M25.13,11.54c-.22.31-.07.68-.18,1.07-.2,0-.55-.14-.54-.38,0-.16.49-.83.62-.81.06.01.07.1.09.12Z"/>
      <path class="cls-14" d="M29.84,12.07c.32.04.73.15.53.54-.07.05-.59-.26-.71-.3-.03-.13.17-.22.18-.24Z"/>
      <path class="cls-8" d="M27.93,11.3c-.37.13-.39.81-.52,1.18-.48,1.37-1.56,3.86-.97,5.25-.48.25-.92.62-1.43.8.69-2.55,1.27-5.18,2.5-7.53.31.09.22.1.42.3Z"/>
      <path class="cls-8" d="M24.92,19.28s.04.04,0,.06v-.06Z"/>
      <path class="cls-12" d="M15.55,14.45c-.28.23-.66.47-1.01.54.01-.01.01-.1.06-.15.33-.34.52-.34.95-.39Z"/>
      <path class="cls-5" d="M37.14,23.4c.44-.06,2.21.02,2.6.17.34.14.64.63.69.98.07.54-.23,2.54-.46,3.04-.32.7-1.55.92-2.25,1.02-.31.04-.96.13-1.24.12-.59-.02-1.47-.99-1.4-1.57.02-.13.13-.28.15-.45.05-.38.02-.67.12-1.07.22-.86.82-2.11,1.8-2.25Z"/>
      <path class="cls-15" d="M35.43,20.05c0,.15.13.26.1.48-.09.59-.77,1.45-.93,2.02-.14,0-.15.08-.21.18-.3.49-.79,1.52-.66,2.09.08.32.48.68.81.71-.09.06-.14.25-.18.3-.52.62-.83,0-1.13-.42.05-.28-.03-.67,0-.98.04-.36.23-.7.32-1.05-.6.39-1.07.95-1.64,1.4-.25.2-.66.53-.95.63-.2.07-.51-.07-.42.42-.78.27-1.28.65-2.14.65-.06-.52.75-.58,1.17-.76,1.63-.71,3.8-2.56,4.73-4.08.19-.3.7-1.5.94-1.59.04-.01.13.01.18,0Z"/>
      <path class="cls-8" d="M34.6,22.55c-.11.41-.06.89.04,1.3.09.35.76,1.75-.1,1.68-.32-.03-.73-.39-.81-.71-.13-.57.35-1.6.66-2.09.06-.09.07-.18.21-.18Z"/>
      <path class="cls-8" d="M30.97,25.41c.29-.1.7-.43.95-.63.57-.44,1.04-1.01,1.64-1.4-.1.35-.28.69-.32,1.05-.03.31.04.69,0,.98-.03.2-.49,1.06-.63,1.25-.32.41-.77.63-1.28.48.07-.06.17-.1.18-.21.05-.33-.54-1.13-.54-1.52Z"/>
      <path class="cls-7" d="M30.97,25.41c0,.39.59,1.19.54,1.52-.02.11-.11.15-.18.21-.09-.03-.15.03-.23-.09-.04-.05-.53-1.15-.54-1.22-.09-.49.22-.35.42-.42Z"/>
      <path class="cls-9" d="M35.37,18.8c.03-.08.18-.5.18-.57.02-.25-.09-.27-.12-.39-.04-.15-.04-.32-.12-.48.45.11,1.28-.21,1.6.22.17.23.17.56-.05.76-.04.04-.85.5-.91.52-.21.08-.41.08-.58-.07Z"/>
      <path class="cls-10" d="M37.81,18.09c-.35.02-.34-.39-.49-.62s-.42-.44-.67-.52c-.59-.19-1.41,0-2.06-.06-.11,0-.36-.06-.44-.12-.06-.04-.03-.12-.04-.12.5-.1.74-.38,1.29-.39,1.4-.03,1.78.83,2.4,1.82Z"/>
      <path class="cls-10" d="M36.38,15.17c1.03.08,2.46,1.18,2.2,2.32-.12.03-.14-.07-.19-.14-.62-.78-1.02-1.59-2.13-1.83l.12-.36Z"/>
      <path class="cls-2" d="M36.38,15.17l-.12.36c-.25-.05-.55-.04-.8-.07-.06,0-.28-.02-.27-.11.39-.17.77-.21,1.19-.18Z"/>
      <path class="cls-12" d="M17.38,22.56c.34-.1,1.02.41.97.73-.02.11-.12.18-.15.27-.07.22-.01.69-.45.39-.08-.05-.63-.8-.64-.85-.04-.15.1-.49.27-.54Z"/>
      <path class="cls-1" d="M17.87,21c-.24,0-.32-.12-.3-.36.04-.04.05-.24.22-.29.54-.16.61.64.08.64Z"/>
      <path class="cls-13" d="M28.64,23.8c.22.02,1,.42,1.02.63.02.28-.95.82-1.21.93-.43.19-.78.22-1.23.29-.29-.5-.49-1.02-.36-1.61.5-.04,1.28-.28,1.79-.24Z"/>
    </g>
  </g>
</svg>